<?xml version="1.0" encoding="utf-8"?>
<!-- Generator: Adobe Illustrator 24.0.1, SVG Export Plug-In . SVG Version: 6.00 Build 0)  -->
<svg version="1.1" id="Layer_1" xmlns="http://www.w3.org/2000/svg" xmlns:xlink="http://www.w3.org/1999/xlink" x="0px" y="0px"
	 viewBox="0 0 784 788.1" style="enable-background:new 0 0 784 788.1;" xml:space="preserve">
<style type="text/css">
	.st0{fill:#030203;}
	.st1{fill:#B7BFC6;}
	.st2{fill:#462A7D;}
	.st3{fill:#FAD5B9;}
	.st4{fill:#ECEFF4;}
	.st5{fill:#623DBF;}
	.st6{fill:#633EC0;}
	.st7{fill:#331B53;}
	.st8{fill:#ED9767;}
	.st9{fill:#331C52;}
	.st10{fill:#45297B;}
	.st11{fill:#EE9B00;}
	.st12{fill:#6146A0;}
	.st13{fill:#5B2911;}
	.st14{fill:#F5BD00;}
	.st15{fill:#7D3E1B;}
	.st16{fill:#8867DE;}
	.st17{fill:#80401C;}
	.st18{fill:#EDF0F5;}
	.st19{fill:#AD98F4;}
	.st20{fill:#F7F7F7;}
	.st21{fill:#E8EBF0;}
	.st22{fill:#BC79F4;}
	.st23{fill:#AD5C26;}
	.st24{fill:#E4696B;}
	.st25{fill:#EF9496;}
	.st26{fill:#FAC100;}
	.st27{fill:#341406;}
	.st28{fill:#6A51A9;}
</style>
<g>
	<g>
		<path class="st0" d="M392.5,751.7c-44.7,4.3-88.8,2.8-133.8,0.4c1.1,1.9,2,3,2.5,4.3c1.8,4.6,4.3,9.2,4.9,13.9
			c1.1,10-5.1,16.4-15.1,17c-1.7,0.1-3.3,0.1-5,0.1c-24.5,0-49,0-73.5,0c-20.9,0-28.1-9.6-22.4-29.7c1.4-5.1,3.3-10.1,5.1-15.6
			c-8-1.3-15.9-2.2-23.6-3.8c-13.2-2.7-26.4-5.5-39.3-9.1c-5.8-1.6-11.3-4.9-16.2-8.5c-8.7-6.4-12-15.7-8.1-25.6
			c3.7-9.5,8.2-19.2,14.5-27.1c14.9-18.8,30.9-36.6,46.6-54.7c2-2.3,2.7-4,2.2-7.3c-1.3-7.8,1-15.2,4.8-22c2-3.6,4.6-6.9,6.2-9.4
			c-11.7-13.8-23.3-27.4-35.2-41.3c-6.6,4.5-15,5.6-23.8,2c-8.7-3.6-12.5-10.2-11.7-19.7c0.1-1.4-1.1-3.3-2.2-4.5
			C59.2,499.5,54.6,486.3,58,471c2-8.9,7.2-15.6,15.8-19.4c1.3-0.6,2.9-2.3,3-3.6c1.2-14.7,5.7-28.3,12.3-41.3
			c0.3-0.6,0.5-1.2,0.6-1.3c-8.7-1.1-17.4-1.6-25.9-3.4c-5.2-1.1-10.1-4.1-15-6.5c-3.5-1.7-5.2-4.6-3.7-8.6
			c-6.3-2.7-12.8-4.9-18.7-8C6.9,368.8-3.6,349.2,1.2,330c1.7-6.9,5.1-13.8,9.4-19.6c22-29.8,49.7-53.7,80.3-74.2
			c13.5-9.1,27.9-16.9,41.8-25.4c1.6-1,3.3-2.4,4-4c10.6-26.3,17.8-53.6,22.3-81.6c0-0.3-0.1-0.6-0.2-1.3
			c-7.1,4.2-13.9,8.6-21.1,12.3c-10.8,5.5-21.8,10.6-32.9,15.4c-3.4,1.5-7.5,1.7-11.2,1.8c-6.9,0.1-10.9-4.3-10.2-11.2
			c0.4-3.9,1.1-8,2.7-11.6c20.8-49.3,52.2-90.1,99.1-117C217-4.6,249.4-4.6,281.5,14c23.3,13.6,42.7,31.7,60.7,51.4
			c26.8,29.4,49.6,61.7,70.3,95.6c1.1,1.7,3.2,3.4,5.2,3.9c32.6,8.1,65.8,11.5,99.4,11.6c17.5,0,34.9,0.2,52.4,0.9
			c5.1,0.2,10.5,1.8,15.2,4c7.4,3.5,10.4,10.4,7.3,17.9c-2.8,6.6-6.6,13.1-11.2,18.6c-24.3,28.3-53.7,50.1-86.7,67.2
			c-2.2,1.1-4.4,2.3-6.6,3.5c2.6,2.7,5.5,5.3,7.9,8.2c12.8,15.5,10.8,38.8-5,51.3c-4.6,3.6-5.9,6.9-4.4,12.1c0.3,0.9,0.2,2,0.4,3.6
			c7.2-2.3,14.2-4.7,21.2-6.8c11.7-3.6,23.6-7,35.3-10.8c2.2-0.7,4.3-2.7,5.7-4.5c4.4-5.6,7.9-12.1,13-16.9
			c3.7-3.6,9.2-5.8,14.3-7.3c2.9-0.8,4.8-1.5,6.6-3.9c10.8-14.3,21.7-28.6,32.9-42.7c4.7-5.9,10.8-9.8,18.5-11
			c1.8-0.3,3.5-1,5.3-1.5c7.4-2.3,8.1-3.5,9.1-11.1c1.1-8.7,2.1-17.6,4.2-26.1c1.1-4.4,3.7-9.3,7.1-12.2c11.3-9.5,23.3-18.3,35-27.2
			c1.7-1.3,3.8-2.1,5.8-2.9c3.7-1.5,7.6-2.5,10.5,1.3s1,7.4-1.6,10.4c-4.8,5.5-9.6,11.1-15,16.1c-10.5,9.7-14.8,21.1-12.8,35.4
			c2.4,17.8-5.1,31-20.5,39.9c-1.2,0.7-2.3,1.5-3.5,1.9c-16.2,5.8-26.7,18.1-36.1,31.7c-2.8,4.1-5.9,8.1-8.8,12.1
			c11,10.3,14.2,29.4,5.2,48.4c-7.7,16.1-18,22.4-34.6,21.4c-1.9,10-3.4,20.2-6,30.1c-2.3,9-5.6,17.7-8.7,26.5
			c-5.8,16.1-17.1,26.8-32.5,33.9c-23.8,11-48.8,18.4-73.9,25.6c-0.6,0.2-1.2,0.4-1.9,0.6c0,0.6-0.2,1.2,0,1.6c6,13.3,3,25.3-5,36.6
			c-2.5,3.5-4.8,7.2-7.3,10.7c-3.6,5.2-3.6,8.5,0.6,13c20.1,21.5,31.2,47.8,38.5,75.7c3.9,14.9,6,30.3,9.1,45.5
			c1.1,5.2-1.4,8.5-5.2,10.8c-6.2,3.8-9.1,8.7-6.6,16c0.1,0.2,0,0.3,0,0.5c-0.2,7,2,11.7,9,15.6c11.5,6.2,20.2,15.9,23.4,29.2
			c2.6,10.8-3.4,18.5-14.6,18.6c-29,0.1-58,0.1-87,0c-11.3,0-19.4-7.9-20.6-19.6C393.6,762.6,393.1,757.3,392.5,751.7z M206.6,226.9
			c-0.4,0.2-0.7,0.4-1.1,0.6c-3.5,2.8-7.4,5.2-10.5,8.3c-16,15.7-16.5,37.1-1.2,53.4c2.9,3.1,3.4,5.7,2,9.7
			c-8.7,23.8,3,50,26.3,59.4c1.7,0.7,5,0.5,6.1-0.7c12.4-12.7,24.6-25.6,37.4-39.1c-3.3-1.1-5.2-1.6-7-2.3
			c-17.4-6-25.9-25.8-18.1-42.4c5.8-12.4,16.2-17.9,29.6-18.5c15.3,1.8,25.6,9.6,29.4,24.9c0.8,3.1,0.7,6.5,1,9.9
			c25-7.8,46.1,1.1,66.1,15c6.3-7.5,14.1-11.6,23.5-12.5c0-2.2,0-4,0-5.9c-0.3-8.5,1.3-16.6,6.5-23.6c7-9.5,18.8-10.4,26.6-1.6
			c3.4,3.9,6.1,8.8,7.8,13.7c3.9,11.1,2.7,22.2-2.1,32c8.8,10.1,17.2,19.6,25.9,29.5c5.6-17,5-33.2-2.1-49.3c-1.1-2.6-1-6-0.7-8.9
			c0.7-6.6,1.8-13.1,2.9-20.6c-7.3,3.7-12.3,3-17.4-1.4c-8.3-7.1-17.9-11.5-29.1-11.6c-7.3,0-14.6,0.1-21.9,0.4
			c-7.5,0.3-12.1-4-11.6-11.4c0.1-2,0.7-3.9,1-5.9c2.7-7.8,6.9-14.6,15.1-20.1c-39.5-1.8-77.5-5.3-115.8-1.7
			c10.8,4.9,19,12.4,24.2,22.9c1.7,9.1-2.4,14.1-11.7,14.9c-4.9,0.4-9.8,1.4-14.7,2.2c-0.5,0-1-0.1-1.5,0.1
			c-19.4,4.6-35.8,13.7-47,30.9c-4.8,7.4-14.5,7.4-19.8,0.4c-5.1-6.8-8-14.3-8.1-23c-0.1-10,4.2-18.2,9.5-26.2
			c0.3-0.4,0.5-0.8,0.8-1.2c0.2-0.3,0.4-0.6,0.6-0.9C207.4,226.6,207,226.8,206.6,226.9z M435.1,585.3L435.1,585.3
			c0.3,0.6,0.7,1.3,1.1,1.9l0,0c0.6,1.5,1,3.1,1.7,4.6c1.6,3.3,2.4,6.6-1.7,8.5c-3.7,1.7-5.7-0.6-7.4-3.8c-3.4-6.5-7-12.8-10.7-19.1
			c-0.8-1.3-2.1-3-3.4-3.3c-7.7-1.6-15.5-2.7-23.6-4.1c0,2.5-0.1,4.2,0,5.8c0.9,16.6-3.9,31.2-15.4,43.4c-1.6,1.7-4.6,3-6.8,2.9
			c-7.1-0.3-14.3-1.1-21.3-2.2c-2.2-0.4-5.2-2.1-6-4c-0.6-1.5,1.3-4.4,2.8-6.2c6.3-7.3,13-14.2,19.1-21.7c3-3.7,4.8-8.4,7.7-13.6
			c-1.8,0.4-2.3,0.4-2.6,0.6c-21,11.1-39.5,25.2-54.3,43.9c-1.4,1.8-3.9,2.7-5.9,4c-4.3-1.2-8.6-2.4-12.9-3.6
			c-7.9-2.1-9-4.1-5.8-11.6c5.2-12.5,14.3-21.9,24.5-30.2c4.5-3.7,9.5-6.9,14.3-10.4c-0.1-0.3-0.1-0.6-0.2-0.9
			c-12.3,0.8-24.6,1.6-36.9,2.3c-13.8,1.6-27.6,2.7-41.3,5c-10.2,1.7-14,10.2-10,19.9c1.5,9.9-0.4,18.8-7.7,26.1
			c-11.4,8.4-24.6,11.4-38.4,11.8c-19.4,0.6-38.1-2.2-55.3-13.2c-22.5,24.4-46.4,47.5-61.2,78.9c1.8-0.4,2.3-0.3,2.6-0.6
			c12.2-7.5,25.8-11.1,39.7-14.2c13.8-3,27.7-2.7,41.6-1.9c1.6,0.3,3.3,0.7,4.9,0.9c30.3,3.9,59.6,12.1,88.3,22.2
			c27.1,9.5,54,19.8,81.2,29c17.3,5.9,35.2,9.4,53.8,8.1c32.7-2.1,61.1-14.8,86.8-34.3c2.5-1.9,5.1-3.7,7.4-5.8c1-1,2-2.7,1.9-4
			c-0.3-4.4-1.1-8.8-1.8-13.2c-2.9-12.5-5.1-25.1-8.8-37.3c-6.9-22.9-16.5-44.5-33-62.5c-3.1-3.4-6.4-6-11.5-5.7
			c1.2,1.9,2.4,3.8,3.6,5.6C434.3,584,434.7,584.6,435.1,585.3z M684,201.2c0.7-0.3,1.3-0.6,2-1c0.1-0.1,0.1-0.2,0.2-0.3
			c0,0.1-0.1,0.2-0.1,0.4C685.4,200.6,684.8,201,684,201.2c-0.3,0.4-0.6,0.7-1,1c-2.2,1.5-4.4,2.8-6.4,4.5
			c-7.4,6.1-15.4,11.9-16.3,22.8c-0.5,6.1-1.7,12.2-2.2,18.3c-0.9,11.5-4.1,15.9-15.1,19.7c-2,0.7-4.1,1.5-6.2,1.8
			c-6.7,1-11.8,4.8-15.7,9.8c-10.2,12.9-20.1,26.1-29.9,39.3c-1,1.3-1.1,3.2-1.6,4.8c1.8,0,3.6,0,5.4,0c5.5,1.2,8.9-1,12.3-5.7
			c12.2-17.4,24.5-34.6,45.7-43c14-5.5,19.9-17,18.3-32.5c-1.1-10.9-0.9-22,5.8-31.6c2-2.7,4-5.3,6-8
			C683.4,202,683.7,201.6,684,201.2z M112,235.2c-0.5,0.1-0.9,0.3-1.4,0.4c0.1,0.2,0.2,0.4,0.3,0.6c0.4-0.3,0.8-0.6,1.2-0.9
			c0.1-0.3,0.3-0.5,0.4-0.8C112.3,234.8,112.2,235,112,235.2z M508.1,265.3L508.1,265.3c0.7-0.6,1.4-1.2,2.1-1.9l-0.1,0.1
			c1.6-0.6,3.4-1,4.6-2c14-10.9,28.5-21.4,41.7-33.2c8.8-7.9,16.5-17.3,23.6-26.9c5.5-7.5,3.2-11.1-6.3-12.1c-0.5-0.1-1-0.1-1.5-0.1
			c-19.5-1-38.3,2.8-57.1,7.1c-6.7,1.4-13.3,2.7-20,4.1c-13.5,2.3-27,4.6-40.5,6.9c0,0.1,0,0.3,0.1,0.4c1.2,0.9,2.4,1.7,3.7,2.5
			c18.6,12.3,28.3,29.1,26.7,51.8c-0.3,4.5-0.6,8.9-0.9,13.4c-0.2,1-0.3,1.9-0.5,2.9c-0.1,0.2-0.2,0.4-0.2,0.6
			c0.2-0.1,0.4-0.1,0.6-0.2c7.3-4,14.6-7.9,22-11.9C506.7,266.3,507.4,265.8,508.1,265.3z M372.8,527c-4.4,2.9-8.8,5.8-13.8,9
			c9.4,2.6,11.5,1.1,14.2-8.7c0.1-0.5,0.2-1,0.3-1.5C373.3,526.3,373,526.7,372.8,527z M568,384.3c0.2,0.1,0.3,0.3,0.5,0.4
			C568.4,384.6,568.2,384.4,568,384.3c-1.2-5.7-2.4-11.4-3.8-18.1c-1.9,5.3-3.5,9.8-5.3,14.9C562.2,382.3,565.1,383.3,568,384.3z
			 M426.1,565.3C426.4,565.5,426.8,565.8,426.1,565.3C426.9,565.5,426.5,565.4,426.1,565.3c-11.7-8.5-20.8-9.9-28.8-4.4
			c2.1,0.3,4.2,0.6,6.3,0.9C411.1,563,418.6,564.1,426.1,565.3z M184,551.2c2.6,0,5.1,0,8.4,0c-1.4-5.9-2.6-10.7-4-16.4
			c-3.2,2-5.8,3.7-8.4,5.3c-3.2,2.1-6.3,4.3-9.7,6.6C174.5,551.9,178.9,552.8,184,551.2z M435.1,539.3c-5,3.6-10,7.3-15.4,11.2
			c6.3,3.1,12,5.8,18.3,8.9c3-4.7,6-9.4,8.9-14.1c4.7-6.9,8.7-13.9,5.6-20.1C447,529.7,441.1,534.5,435.1,539.3z M372.2,384.1
			L372.2,384.1c-9.8-15.6-35-17.4-47.1-2.4c5.1,2.9,10.1,5.7,15,8.5c11.9,4.9,23.4,3.6,35-2.2c-0.8-1.1-1.4-1.9-2-2.7
			C372.8,384.9,372.5,384.5,372.2,384.1z M543.3,386.3c-1.2,5.2-2.3,10.3-3.6,16.3c7.1-3.2,13.1-5.8,19.2-8.5
			c0.6-0.3,1.1-0.7,1.1-0.8c-3.9-2.6-7.9-5.3-11.9-8c2.8-14.3,7.7-27.8,16.5-39.6c3.5-4.7,7.7-8.6,14.1-9.6c1.4-0.2,3.4-3.6,3.1-5.1
			s-3-3.3-4.8-3.6c-1.7-0.3-4.1,0.8-5.4,2c-4.1,4-8.5,8-11.6,12.8C551.5,355.7,546.8,370.8,543.3,386.3z M388,226.3
			c-1.1,2.9-2.3,5.8-3.8,9.6c23.2-2.6,44.3-1.5,61.8,14.9c1.9-7.9,1.2-13.8-2.1-19.4c-4.8-11.6-20.4-19.9-34.7-18.4
			C400,213.9,392.1,217.1,388,226.3z M481,463.3c-5,12.6-9.9,25.2-15.2,38.6c13.1-4.1,25.9-8.2,37.9-12c-3.1-7.6-5.9-14-8.3-20.7
			c-1.2-3.2-1.5-6.7-2.3-10c1.3-16.2,2.3-32.4,4.2-48.5c1-8.7,3.7-17.3,5.7-26.2c-13.4,8.7-13.4,8.7-13.5,23.8c0,1.5,0.1,3-0.1,4.5
			C486.6,429.7,483.8,446.5,481,463.3z M299.1,40.2c0-0.3,0-0.6-0.1-0.9c-6.2-4.7-12-9.8-18.5-13.9c-13.6-8.6-28.1-14.9-44.7-15.3
			c-22.5-0.4-41.8,8.2-59.7,20.6c-27.5,19.1-48.6,44.3-65.6,72.8c-6.2,10.3-10.5,21.8-15.6,32.7c-0.6,2.1-1.1,4.3-2,7.8
			c5.1-1.3,9.2-1.9,13-3.4c18.8-7.6,35.9-18.1,52.7-29.2c1.2-0.8,2.3-2.5,2.4-3.9c0.6-6.4,0.8-12.9,1.1-19.4
			c0.6-3.7,2.1-6.6,6.4-5.9c3.7,0.6,4.6,3.7,4.3,6.8c-1.4,13.7-2.5,27.4-4.6,41c-1.9,12.4-4.8,24.7-7.2,37c-0.1,0.2-0.2,0.4-0.3,0.6
			c0.2-0.1,0.4-0.2,0.6-0.3c2.3-1,4.6-1.9,6.8-3.1c23.7-12.6,48.4-22.9,74.5-29.6c9.5-2.4,19.1-4.3,28.6-6.4
			c12.4-1,24.8-3.1,37.2-2.7c18.3,0.6,36.6,2.9,54.9,4.5c6.6,1.7,13.2,3.5,21.2,5.6c-5.5-7.7-10-14.3-14.7-20.7
			c-18.5-25.1-38.3-49-61.9-69.5C305.2,43.4,302,42,299.1,40.2L299.1,40.2z M576.1,363.2c0.5,5.2,0.1,10.7,1.8,15.4
			c3.3,9.3,11.6,11.5,19.6,5.7c9.7-7.1,14.3-17.1,14.5-29.1c0.8-6.5-0.4-12.6-4.7-17.7c-5.2-6.2-12.9-5.4-17,1.4
			c-1.1,1.8-2.5,3.8-4.3,4.7C577.8,347.8,577,355.4,576.1,363.2z M446.2,746.5c-2.1,1.6-4.2,3.2-6.4,4.7c-2.3,2.1-4.7,4.1-6.9,6.3
			c-2.3,2.4-4.7,3.9-7.7,1.4s-2.5-5.3-0.2-7.8c2.6-3,5.5-5.7,8.3-8.5c0.3-0.3,0.7-0.6,1-1c-0.5,0.2-1,0.3-1.5,0.5
			c-8.9,2.5-17.9,4.8-26.8,7.5c-1.3,0.4-3,2.5-2.9,3.7c0.2,5.3,0.6,10.6,1.7,15.8c1.3,6,4.7,8.3,10.8,8.3c14.1,0,28.3,0,42.4-0.1
			c12.3,0,24.7-0.1,37-0.1c3.8-0.6,7.5-1.1,11.3-1.7c-0.9-3.9-1-8.3-2.9-11.6C491.5,743,466.7,735.7,446.2,746.5z M174,531.2
			c3.1-1.7,6-3.5,9.2-4.9c3.1-1.3,3.9-3.2,4-6.5c0-9.3,0.4-18.6,1-27.8c0.3-5.4,1.4-10.7,2.1-15.7c-9.3,2.7-18.1,5.2-26.9,7.8
			c-12.6,1.4-24.5-1.2-36.2-6.9c0.3,1.1,0.4,1.7,0.6,2.3c5.7,19.9,15.5,37.4,29.3,52.8c6.1,6.8,5.8,7,13.1,1.9
			C171.3,533.1,172.6,532.2,174,531.2z M204.5,744.2c-4.2,1.7-8.4,3.3-12.6,5c-3.9,2.8-8,5.2-11.5,8.4c-2.8,2.5-5.4,3.8-8.2,0.9
			c-2.4-2.6-1.8-5.8,0.9-7.9c6.2-4.7,12.6-9,18.9-13.5c9.2-3.4,18.5-6.3,28.6-5.3c0.9,0.1,2.4-0.7,2.7-1.4c1.6-4.4,2.9-9,4.6-14.5
			c-6.6-0.6-12.2-1-17.8-1.5c-11.2,0.9-22.4,1.7-33.6,2.9c-1.2,0.1-2.9,1.7-3.3,3c-4.9,14.5-9.9,28.9-14.2,43.6
			c-2.8,9.3,0.4,13.2,10.1,13.3c10,0.1,20,0,29.9,0c15.7-0.1,31.4-0.1,47.1-0.2c3.1-0.6,7.5-0.3,8.9-2.2c1.4-2,0.7-6.4-0.5-9.2
			c-3.9-9.1-11.2-15.2-20-19.3C224.9,741.9,214.9,739.4,204.5,744.2z M503.3,452.2c0.7,5.2,0.6,10.8,2.2,15.7
			c1.8,5.4,5,10.3,7.9,15.2c0.6,1,2.7,1.9,3.7,1.5c5.5-2.1,10.8-4.6,15-6.4c-2.2-7.1-4.7-13.1-5.9-19.3c-1.2-5.8-1.1-11.9-1.6-17.8
			c0.3-4.1,0.3-8.3,1-12.3c3.3-18.5,6.9-37,10.3-55.5c1.7-5.2,3.5-10.4,5.4-16.1c-3.4,0.9-5.9,2-8.5,2.2c-11.4,1-15.8,8.4-17.1,18.6
			c-2.1,7.6-4.5,15.2-6.3,23C505.7,417.8,502.4,434.8,503.3,452.2z M174.2,577.5c5-4,8.3-9.1,9.7-16.6c-4.9,2-8.9,3.6-13,5.3
			c-3.9,2.2-8.1,4-11.5,6.8c-8,6.5-15.6,13.6-17.5,24.5c-2.3,7.8,0.6,12.9,9.9,16.7c13.6,5.6,27.8,8.2,42.3,7
			c8.1-0.7,16-3.6,23.9-5.5c8.9-3.2,12.8-8.8,11.5-16.8c-4,1.7-6.8,0-9.7-2.8c-9.1-8.8-16.3-18.8-21.7-30.3
			c-0.7-1.5-1.8-2.8-2.1-3.4c-4.1,6.8-7.8,13.5-12.2,19.7c-1.3,1.8-4.9,3.1-7.1,2.7C173.2,583.9,173.9,580.3,174.2,577.5z
			 M281.2,222.2c-3.4-2-6.6-4.6-10.2-5.9c-22-8-54.1,6.8-62.3,28.7c-3.4,9.1-2,17.6,3.4,25.6c1.6,2.4,3.2,2.9,4.9,0.2
			c6.1-9.8,14.8-16.9,24.1-23.4c15.2-8.3,31.5-12.6,50.5-13.6C287.4,229.2,284.3,225.7,281.2,222.2z M371.2,142.8
			c-17.7-5.1-35.8-7.3-54-7.2c-13.4,0.1-26.7,1.8-40.1,2.7c-1.3,0.1-2.7,0-4,0.3c-41,6.5-78.8,21.5-114.3,42.6
			c-1.1,0.7-2.6,1.4-3,2.5c-2.1,5.8-4,11.8-6.2,18.5c2.4-1,3.7-1.5,5.1-2.1c25.5-12,51.8-21.8,79-29.2c17.9-4.9,36.2-8.5,54.4-12.6
			c1.3-0.1,2.6-0.2,4-0.2c17.6-1,35.1-2.6,52.7-2.9c10.8-0.2,21.5,1.4,32.3,2.2c7.6,1.4,15.2,2.7,22.8,4.1c0.3-0.3,0.6-0.7,0.9-1
			c-3.1-3.7-5.5-8.6-9.4-10.7C385.2,146.3,378,145,371.2,142.8z M178,223.2c-1.6,0.3-3.3,0.3-4.9,0.8
			c-45.6,13.4-88.3,32.8-125.6,62.7c-12.4,9.9-23.5,21-32.2,34.6c-10.5,16.5-2.9,36,8.7,44c8.9,4,17.7,8,26.5,12.1
			c3.3,1.5,5.4,0.4,7.9-2c25.8-25.5,45-55.3,57.5-89.4c1.7-4.6,3-9.3,4.9-15.3c-2.3,1.3-3.2,1.6-3.9,2.2
			c-9.1,7.8-18.2,15.5-27.2,23.4c-2.5,2.1-5.4,3.4-7.2,0.5c-1.1-1.7-1-5.7,0.3-7.3c3.3-4.1,7.3-7.7,11.4-11.1
			c7.2-6.1,14.5-12,21.8-18c13.2-8.3,26.3-16.9,39.7-25C162.9,230.9,170.6,227.3,178,223.2c0.5,0,1-0.2,1.4-0.3
			c-0.1-0.2-0.2-0.4-0.3-0.6C178.8,222.7,178.4,223,178,223.2z M497.9,189c1.2-0.4,2.4-0.7,3.6-1.1c1.9-0.2,3.7-0.5,5.6-0.7
			c-0.1-0.2-0.1-0.5-0.2-0.7c-4.7,0-9.4,0-14.1,0c-2.7-0.4-5.5-1.1-8.2-1.2c-26.8-1-52.6-7.5-78.7-12.4c-17.8-3.4-35.8-5.1-53.8-7.5
			c-0.8-0.2-1.6-0.6-2.4-0.5c-18.2,0.9-36.4,1.8-54.6,2.8c-64.7,10-124.9,32.1-181.8,65.9c1.4,0.5,1.7,0.8,2,0.7
			c1-0.3,1.9-0.6,2.8-1c65-28.3,133.3-39.6,203.8-38.5c22.6,0.3,45.2,2.6,67.7,3.5c28,1,55.9,0.6,83.7-3.9
			c7.6-1.3,15.1-3.3,22.7-4.9C496.7,189.2,497.3,189.1,497.9,189z M322.2,355.4c1.7-0.6,3.4-1.2,5.2-1.6c8.5-2.2,16.9-5.3,25.5-6.2
			c21.9-2.4,40.7,5.6,57.3,19.5c8,6.7,15.9,13.6,23.8,20.3c7.5,6.5,16,11,26.3,9.5c12.7-1.8,22.4-9.2,32.9-17.8
			c-15.2-1.2-25.3-9.3-34-19.4c-7-8.2-13.1-17.3-20.3-25.3c-6.8-7.6-14.5-14.5-21.8-21.7c-1.3-0.8-2.6-1.6-3.8-2.4
			c-17.1-11.9-32.6-9.4-42.2,6.9c-3.3,1.4-5.8,0.2-8.6-1.8c-5.2-3.9-10.5-7.6-16.3-10.6c-10.5-5.4-21.6-8.7-33.6-6.9
			c-16.2,2.5-27.1,13.1-37.4,24.6c-7.4,8.3-14.7,16.8-22.1,25c-13.1,14.4-26.2,28.9-48.7,31.5c5.9,4,10.6,7.4,15.5,10.4
			c16.3,9.9,33.2,10.8,49.6,0.8C287.3,379,304.6,367,322.2,355.4z M180.8,234c-15.3,8.7-30.6,17.4-45.8,26.3c-1,0.6-1.7,2.4-2,3.7
			c-10.4,42.9-30.8,80.2-61.3,112.1c-4.3,4.5-9,8.7-13.9,13.5c3,1.2,4.9,2.1,7,2.7c10.9,3.2,22,2.9,33.2,1.7c2-0.2,5,0.6,6,2
			s0.4,4.4-0.3,6.3c-1.2,2.9-3.2,5.4-4.7,8.2c-6.6,12.4-11.1,25.5-11.9,40.9c2.7-0.6,4.8-0.7,6.7-1.5c3.9-1.6,7.6-4.2,11.6-5.4
			c13.9-4,28-7.4,41.9-11.3c1.7-0.5,4-1.7,4.5-3.1c5.6-15.6,8.3-31.7,9.1-48.2c-6.7,0-13.4,1.1-19.5-0.2
			c-20.1-4.4-31.9-24.1-27.3-44.2c4.3-19.2,23.6-31.2,43.5-27.8c5.9,1,7.9,3.6,8.8,9.1c4.3,24.6,6.3,49.2,3.7,74.1
			c-2.8,27.8-10.6,53.8-27.8,76.3c-0.6,0.7-0.9,1.6-1.4,2.7c9.2,2.7,18.2,3.7,26.9,0.8c7.9-2.6,15.5-6.6,22.9-10.5
			c3.2-1.7,6.1-2.8,9.2-0.6c2.9,2.1,3.7,5,2.4,8.4c-0.3,0.9-0.5,1.9-0.7,2.9c-5.9,26.1-7.1,52.1,1.5,77.9c4.3,13,11,24.7,20.9,34.9
			c8.6-17.1,23.4-25.4,40.3-30.2c15-4.2,30.4-7.4,45.5-11.1c25.5-6.2,49.1-15.9,67.1-36c2.6-2.9,5.8-3.4,9-1.5
			c3.6,2.1,4,5.5,2.8,9.2c-4.5,13.5-9.6,26.6-20.4,36.6c-0.3,0.3-0.2,0.9-0.3,1.3c26.2,1.2,53.6-12,72.7-35
			c20.5-24.6,31.4-53.5,36.5-84.7c1.7-10.7,2.2-21.7,3.2-32.5c-1.4-0.2-1.5-0.3-1.7-0.2c-1.2,0.5-2.5,0.9-3.7,1.5
			c-15.4,6.7-30,5.1-43.3-4.8c-6.8-5.1-13-10.9-19.5-16.4c-3.2-2.7-6.4-5.5-9.9-8.5c-10.2,18.8-25.2,29.2-46,29.7
			c-20.9,0.5-36.4-9.5-47.2-27.4c-4.5,3.2-8.5,6.2-12.6,9c-8.5,5.5-16.8,11.5-25.7,16.2c-15.3,8-31.2,8.5-47.2,1.6
			c-13.7-5.8-24.9-15.2-35.6-25.3c-2.3-2.2-5-4.4-2.9-8.1c2-3.6,5.1-2.7,8.3-1.7c6.8,2,13.6,2.2,21.1-1.1c-1-0.5-1.4-0.8-1.8-1
			c-22.1-11.9-35.5-39-27.2-67.2c0.3-1.1-0.1-3-0.9-3.9c-12.8-14.8-16.9-38.3-2.4-59.2c0.3-0.5,0.6-1,0.9-1.5
			C182.1,233.6,181.4,233.8,180.8,234z M158.1,733.1c4.5-13.4,8.7-25.6,12.6-37.9c0.3-0.9-1.8-3.6-2.9-3.7
			c-17.4-1.9-34.9-2.9-51.9,2c-10.3,3-20.3,7.1-30.1,11.6c-5.3,2.4-5.4,5.4-0.5,8.9c3.8,2.8,8.2,5.6,12.7,6.6
			C117.8,725,137.7,728.9,158.1,733.1z M112.1,453.4c-11.2,0.8-16.2,5.6-14.9,15c3.7,26.3,12.8,50.6,28.7,72.1
			c7.2,9.8,15.4,18.7,25,25.9c5-3.2,9.5-6.2,14.5-9.5c-3.7-4.3-7-8.7-10.9-12.5c-17.2-17.2-29.5-37.4-36.1-60.7
			C115.6,473.7,114.2,463.5,112.1,453.4z M160.9,359.1c-0.3-3.7-0.7-10-1.4-16.3c-0.7-6.4-1.8-12.9-2.7-19.3
			c-0.3-2.6-1.2-4.1-4.3-4.3c-15.1-1.4-29.1,10.4-29.6,25.3c-0.6,15.6,11.9,28.6,27.2,28.4C160,372.6,161.3,371.3,160.9,359.1z
			 M570.8,401.3c-0.5-0.3-1.1-0.6-1.6-0.9c-9.5,4.3-19,8.5-28.5,13c-1.1,0.5-2.1,2.2-2.3,3.5c-1.8,14.1-4.1,28.3-0.5,42.5
			c0.9,3.5,3.1,6.7,4.6,10c3-2.6,7.2-4.7,8.8-8c5.1-10.6,9.8-21.4,13.5-32.5C567.7,419.9,568.9,410.5,570.8,401.3z M447.7,216.1
			c0.9,1.4,1.3,2.1,1.8,2.8c12.5,19,18.4,39.3,12.4,62c-0.3,1.1-0.1,2.6,0.4,3.7c8.4,19.8,8.4,39.7,0.5,59.6c-0.4,1.1-0.8,3-0.3,3.6
			c4,4.7,8.3,9.2,12.5,13.8c0.4-5.1,0-9.4-0.4-13.7c-2.3-27.7-3.2-55.5,0.2-83.2C477.5,243.6,467.4,224.8,447.7,216.1z M86.7,460.6
			c-9.3-1.2-15.9,2.9-18.5,11.5c-2.4,7.9-1.1,15.4,2.3,22.8c3.6,7.8,9.8,12.7,16.8,17.2c1.6,1,2.8,4.2,2.5,6.1
			c-0.2,1.3-3.4,2.2-5.3,3.1c-0.6,0.3-1.4,0-2.3,0c4.5,5.8,11.3,7.6,17,4.8c3.1-1.5,4.4-3.2,2.6-7C93.1,500.8,87.6,481.4,86.7,460.6
			z M263.1,742.6c25.1,0.8,49.5,1.5,73.8,2.2c-5.2-2.8-10.6-4.3-15.9-6.1c-15.1-5.2-30.1-10.5-45.3-15.6c-1.7-0.6-5.3-0.1-5.7,1
			C267.4,729.8,265.5,735.8,263.1,742.6z M366.1,563.7c-4.7,0.6-8.4,0.4-11.5,1.7c-16.9,7.3-32.8,16.3-45.2,30.3
			c-3.7,4.1-6.5,8.9-9.8,13.5c4.8,2.9,7.4,2.2,10.8-1.3c8.4-8.7,17.1-17.2,26.6-24.7C345.6,576.3,355.5,570.7,366.1,563.7z
			 M251.4,744.3c1.8-4.7,3.6-9.3,5.1-14c0.3-1-0.4-3.1-1.3-3.6c-4.8-2.6-9.7-5-14.7-7.1c-0.8-0.3-3.1,0.9-3.5,1.9
			c-1.6,4.1-2.7,8.5-3.9,12.6C239.3,737.5,245.1,740.8,251.4,744.3z M302.2,556.7c0,0.2,0,0.4,0.1,0.5c1.3,0,2.5,0,3.8,0
			c12.8,0,25.5-0.1,38.3-0.2c1.1,0,2.3-0.4,3.2-1c2.3-1.6,4.4-3.4,6.5-5.2c1.5-1.2,3-2.5,4.6-3.8c-10.8-3.2-20.5-1.4-30.2,2.3
			C319.9,552.7,310.9,554.3,302.2,556.7z M483.5,299.8c0,13.1,0,26.5,0,40.7C497.2,329.1,496.5,308.9,483.5,299.8z M145.9,445.7
			c-0.4-0.5-0.9-0.9-1.3-1.4c-6.7,1.8-13.3,3.5-19.9,5.4c-0.7,0.2-1.6,1.5-1.5,2.2c0.7,6.9,1.5,13.8,2.3,20.7c0.5,0,1,0.1,1.6,0.1
			C133.3,463.7,139.6,454.7,145.9,445.7z M178.5,705.3c15.6,0,31,0,46.4,0c-10.6-3.6-21.2-6.6-32-8.9c-12.7-2.7-10.1-5.1-14.5,8.5
			C178.4,705,178.5,705.2,178.5,705.3z M359.4,611.1c0.4,0,1.3,0.1,2.2,0.2c1.2,0.1,2.4,0.4,3.5,0.2c1.9-0.4,4.5-0.5,5.4-1.8
			c7.3-9.4,11.4-20,10.5-31C374.1,589,366.8,600,359.4,611.1z M278.2,265.8c-4.2,0-8.1,3.9-7.9,7.9c0.2,4.4,3.6,7.6,8.2,7.5
			c4.2-0.1,7.6-3.4,7.6-7.5C286.1,269.6,282.4,265.8,278.2,265.8z M425.2,275.4c0.1-5.8-2.6-9.4-6.2-9.5c-4,0-5.4,2.7-5.5,6.2
			c-0.2,4.3,2.8,8.1,6.4,8.1C423.9,280.3,425.1,277.6,425.2,275.4z M473.6,721.1c-6.3,3.8-12,7.2-17.8,10.7c6.4,0,12.6,0,19,0
			C474.4,728.2,474,725,473.6,721.1z"/>
		<path class="st1" d="M181.9,234.9c-14.5,20.9-10.4,44.4,2.4,59.2c0.8,0.9,1.2,2.7,0.9,3.9c-8.2,28.2,5.2,55.3,27.2,67.2
			c0.4,0.2,0.8,0.5,1.8,1c-7.5,3.3-14.3,3.1-21.1,1.1c-3.2-1-6.3-1.9-8.3,1.7c-2.1,3.7,0.6,5.9,2.9,8.1
			c10.7,10.1,21.9,19.4,35.6,25.3c16,6.8,31.9,6.4,47.2-1.6c8.9-4.7,17.2-10.6,25.7-16.2c4.2-2.7,8.1-5.8,12.6-9
			c10.8,17.8,26.3,27.9,47.2,27.4c20.7-0.5,35.8-10.9,46-29.7c3.4,3,6.6,5.8,9.9,8.5c6.5,5.5,12.7,11.3,19.5,16.4
			c13.4,10,28,11.6,43.3,4.8c1.2-0.5,2.4-1,3.7-1.5c0.1-0.1,0.3,0,1.7,0.2c-1,10.8-1.5,21.7-3.2,32.5c-5.1,31.2-16,60-36.5,84.7
			c-19.1,23-46.4,36.1-72.7,35c0.1-0.5,0.1-1.1,0.3-1.3c10.8-10,16-23.1,20.4-36.6c1.2-3.7,0.8-7.1-2.8-9.2c-3.2-1.9-6.5-1.3-9,1.5
			c-18,20.1-41.6,29.8-67.1,36c-15.2,3.7-30.5,6.9-45.5,11.1c-17,4.8-31.7,13-40.3,30.2c-9.9-10.3-16.6-21.9-20.9-34.9
			c-8.6-25.8-7.4-51.8-1.5-77.9c0.2-1,0.3-2,0.7-2.9c1.3-3.4,0.5-6.3-2.4-8.4c-3.1-2.3-6-1.1-9.2,0.6c-7.5,3.9-15,7.9-22.9,10.5
			c-8.7,2.9-17.7,1.9-26.9-0.8c0.5-1,0.9-2,1.4-2.7c17.2-22.5,25-48.6,27.8-76.3c2.5-24.9,0.6-49.5-3.7-74.1c-1-5.5-2.9-8.1-8.8-9.1
			c-19.8-3.4-39.1,8.6-43.5,27.8c-4.5,20.1,7.2,39.8,27.3,44.2c6.1,1.3,12.7,0.2,19.5,0.2c-0.8,16.5-3.5,32.7-9.1,48.2
			c-0.5,1.4-2.8,2.6-4.5,3.1c-13.9,3.8-28,7.3-41.9,11.3c-4,1.2-7.7,3.7-11.6,5.4c-1.9,0.8-4.1,1-6.7,1.5
			c0.8-15.4,5.3-28.5,11.9-40.9c1.5-2.8,3.5-5.3,4.7-8.2c0.8-1.9,1.3-4.9,0.3-6.3c-1-1.4-4-2.2-6-2c-11.2,1.2-22.3,1.4-33.2-1.7
			c-2-0.6-4-1.5-7-2.7c5-4.8,9.6-9,13.9-13.5c30.5-31.9,50.9-69.2,61.3-112.1c0.3-1.3,0.9-3.1,2-3.7c15.2-8.8,30.5-17.5,45.8-26.3
			C181.1,234.3,181.5,234.6,181.9,234.9z M411.5,495.9c0.8,0.1,1.5,0.3,2.1,0.2c14-2.6,25.3-9.8,34.3-20.6
			c12.6-15.3,18.8-33.5,23-52.5c1.6-7.4-1.2-13.7-11.3-10.5c-12.2,3.8-24.5,3.3-35.9-2.1c-8.3-3.9-15.9-9.5-23.5-14.6
			c-2.9-1.9-4.8-3.7-8.5-1.1c-5,3.5-10.7,6.1-16.2,8.9c-12.7,6.3-25.7,11.8-38,18.8c-8.1,4.6-15.8,10.6-22.3,17.2
			c-9.7,10-14.2,23.2-16.9,36.7c-1.6,8-2.3,16.2-3.5,25.4c5.9-0.6,10.8-0.8,15.6-1.7c32.1-5.9,59.6-21,83.5-43
			c6.1-5.6,11.7-4.3,14.4,3.5C412.2,471.9,412.9,483.7,411.5,495.9z"/>
		<path class="st2" d="M232.1,619.4c7.3-7.3,9.1-16.2,7.7-26.1c2.2-1.7,4.3-3.5,6.6-5.2c11.7-8.4,25.2-12.9,38.9-16.9
			c2.1-0.6,3.9-1.8,5.9-2.7c12.3-0.8,24.6-1.6,36.9-2.3c0.1,0.3,0.1,0.6,0.2,0.9c-4.8,3.4-9.7,6.6-14.3,10.4
			c-10.2,8.4-19.3,17.8-24.5,30.2c-3.1,7.5-2.1,9.5,5.8,11.6c4.3,1.1,8.6,2.4,12.9,3.6c-4.1,6.4-7.1,13.4-6.6,21
			c0.7,10.1,9.6,17.1,20.3,17.4c13.8,0.4,25.4-5.7,36.9-12.2c2-1.1,4.1-1.9,6.2-2.9c-1.6,1.7-3,3.5-4.8,4.9
			c-16.9,14-36.6,21.4-58.2,24.1c-3.5,0.4-6,1.9-5.7,5.5c0.3,3.5,3.1,5,6.6,4.5c4.4-0.6,8.9-1.1,13.3-2.1
			c24.4-5.4,45.8-16.4,62.1-35.6c7.9-9.3,13.9-20.1,20.8-30.2c0.3,0.7,0.9,1.4,1,2.2c0.7,8.6,1.6,17.2,1.9,25.7
			c0.6,14.3,15.1,23.1,27.8,16.7c7.8-3.9,12.1-10.6,15.1-18.4c1.6-4.2,4.4-6.4,9.1-6.4c4.6,0,7.1,2.7,8.6,6.4
			c6.1,15,9.9,30.6,11.5,46.7c0.5,5.4,1.3,10.7,2,16.1c-25.7,19.5-54.1,32.1-86.8,34.3c-18.6,1.2-36.5-2.3-53.8-8.1
			c-27.2-9.2-54.1-19.5-81.2-29c-28.7-10.1-58-18.4-88.3-22.2c-1.6-0.2-3.3-0.6-4.9-0.9c6.8-17.2,18.4-30.1,35.1-38.1
			c7.9-3.8,16.6-6,24.1-10.3C225,629.1,228.2,623.6,232.1,619.4z"/>
		<path class="st2" d="M94.9,136.3c5.2-10.9,9.5-22.4,15.6-32.7c17-28.5,38.1-53.7,65.6-72.8c17.9-12.5,37.3-21,59.7-20.6
			c16.6,0.3,31.1,6.7,44.7,15.3c6.5,4.1,12.4,9.3,18.5,13.9c-0.7-0.1-1.4-0.2-2-0.3c-6.7-1.9-13.2-4.2-20-5.5
			c-17-3.3-30.5,7.1-28.5,23.1c1.6,12.7,4.9,25.4,8.8,37.6c3.7,11.7,9.1,22.8,13.8,34.1c-9.5,2.1-19.1,4-28.6,6.4
			c-26.1,6.6-50.8,17-74.5,29.6c-2.2,1.2-4.5,2.1-6.8,3.1l-0.3-0.3c2.5-12.3,5.4-24.6,7.3-37c2.1-13.6,3.2-27.3,4.6-41
			c0.3-3.1-0.6-6.3-4.3-6.8c-4.3-0.6-5.8,2.3-6.4,5.9c-2.8,0.9-5.8,1.5-8.4,2.8c-16.2,7.6-30.3,18.4-43.4,30.5
			C105,126.4,100,131.4,94.9,136.3z"/>
		<path class="st3" d="M273.1,246.4c4.9-0.7,9.8-1.8,14.7-2.2c9.3-0.8,13.3-5.8,11.7-14.9c3.6-0.4,7.2-0.8,10.8-1.4
			c17.9-2.6,35.9-2.6,53.9-1.5c3.9,0.3,7.8,1.2,11.7,1.8c-0.3,2-0.8,3.9-1,5.9c-0.5,7.4,4.1,11.7,11.6,11.4
			c7.3-0.3,14.6-0.5,21.9-0.4c11.2,0.1,20.8,4.5,29.1,11.6c5.1,4.4,10.1,5.1,17.4,1.4c-1.1,7.5-2.3,14-2.9,20.6
			c-0.3,2.9-0.4,6.3,0.7,8.9c7,16.1,7.7,32.3,2.1,49.3c-8.7-9.9-17.1-19.5-25.9-29.5c4.8-9.8,6-20.9,2.1-32
			c-1.7-4.9-4.4-9.8-7.8-13.7c-7.8-8.8-19.5-7.9-26.6,1.6c-5.2,7-6.8,15.1-6.5,23.6c0.1,1.8,0,3.6,0,5.9
			c-9.3,0.9-17.2,5.1-23.5,12.5c-20-13.9-41.1-22.9-66.1-15c-0.3-3.4-0.2-6.8-1-9.9c-3.8-15.2-14.1-23.1-29.4-24.9
			C271.1,252.5,272.1,249.4,273.1,246.4z"/>
		<path class="st4" d="M413.2,310.2c1.3,0.8,2.6,1.6,3.8,2.4c0.5,1.2,0.7,2.6,1.4,3.6c5.1,6.9,10.5,13.6,15.5,20.6
			c10.9,15.2,20.3,31.5,36.6,42c2.6,1.7,2.4,5.1-0.7,6.4c-4.6,1.8-9.4,3.7-14.2,3.9c-7.2,0.2-14.5-1.1-21.7-1.7
			c-7.9-6.8-15.8-13.6-23.8-20.3c-16.6-13.9-35.4-21.9-57.3-19.5c-8.6,0.9-17,4.1-25.5,6.2c-1.7,0.4-3.4,1.1-5.2,1.6
			c-4.8,0-9.7,0.3-14.4-0.2c-18.9-1.8-34.5-10.4-32.7-32.8c10.3-11.5,21.2-22.1,37.4-24.6c12-1.9,23.1,1.5,33.6,6.9
			c5.7,2.9,11.1,6.7,16.3,10.6c2.8,2.1,5.3,3.2,8.6,1.8c1.9,4.7,5.4,6,9.7,2.8C390.4,312.5,401.2,309.4,413.2,310.2z"/>
		<path class="st5" d="M476.1,706.3c-0.7-5.4-1.4-10.7-2-16.1c-1.6-16.1-5.4-31.7-11.5-46.7c-1.5-3.7-3.9-6.4-8.6-6.4
			c-4.7,0-7.5,2.2-9.1,6.4c-3,7.8-7.3,14.5-15.1,18.4c-12.8,6.4-27.3-2.4-27.8-16.7c-0.3-8.6-1.2-17.2-1.9-25.7
			c-0.1-0.7-0.7-1.4-1-2.2c0-0.7,0-1.4,0.2-2c1.1-3.2,0-5.7-3.1-6.7c-3.3-1.1-5.1,0.9-6.5,3.8c-5.9,13-13.4,24.7-24.7,33.8
			c-2.1,1-4.2,1.8-6.2,2.9c-11.5,6.4-23.1,12.5-36.9,12.2c-10.7-0.3-19.6-7.4-20.3-17.4c-0.5-7.5,2.5-14.6,6.6-21
			c2-1.3,4.5-2.2,5.9-4c14.8-18.8,33.4-32.8,54.3-43.9c0.4-0.2,0.9-0.2,2.6-0.6c-2.8,5.1-4.7,9.8-7.7,13.6
			c-6,7.5-12.8,14.4-19.1,21.7c-1.5,1.7-3.4,4.7-2.8,6.2c0.8,1.9,3.7,3.6,6,4c7,1.2,14.2,1.9,21.3,2.2c2.3,0.1,5.2-1.2,6.8-2.9
			c11.4-12.2,16.3-26.8,15.4-43.4c-0.1-1.6,0-3.2,0-5.8c8,1.3,15.8,2.5,23.6,4.1c1.3,0.3,2.6,1.9,3.4,3.3
			c3.7,6.3,7.3,12.7,10.7,19.1c1.7,3.2,3.7,5.5,7.4,3.8c4.1-1.8,3.3-5.2,1.7-8.5c-0.7-1.5-1.2-3-1.7-4.6c1,0.7,2.3,1.3,3,2.2
			c17.3,24.1,30.4,50.3,39.2,78.6c1.6,5.1,3.6,10.2,5.3,15.3c0.6,4.4,1.4,8.8,1.8,13.2c0.1,1.3-0.9,3-1.9,4
			C481.2,702.6,478.6,704.4,476.1,706.3z"/>
		<path class="st6" d="M271.1,128.3c-4.7-11.3-10.1-22.4-13.8-34.1c-3.9-12.2-7.2-24.9-8.8-37.6C246.6,40.7,260,30.3,277,33.5
			c6.8,1.3,13.3,3.6,20,5.5c0.7,0.4,1.4,0.8,2.1,1.2l-0.1-0.1c4.7,4.6,9.8,8.9,14,13.9c19.9,23.2,35.4,49.4,50,76.1
			c-18.3-1.6-36.6-3.9-54.9-4.5C295.9,125.3,283.4,127.4,271.1,128.3z"/>
		<path class="st7" d="M116,260.3c-7.3,6-14.7,11.9-21.8,18c-4,3.5-8.1,7-11.4,11.1c-1.3,1.6-1.4,5.6-0.3,7.3
			c1.9,2.9,4.8,1.6,7.2-0.5c9-7.9,18.1-15.6,27.2-23.4c0.7-0.6,1.6-0.9,3.9-2.2c-1.9,6-3.2,10.7-4.9,15.3
			c-12.5,34.1-31.7,63.9-57.5,89.4c-2.4,2.4-4.6,3.5-7.9,2c-8.8-4.1-17.7-8.1-26.5-12.1c0-1.3,0.4-2.8,0.1-4
			c-3.7-12.8-1.6-25.1,4.4-36.5c7.6-14.5,19.1-25.9,32.6-34.9c11.6-7.7,23.6-14.9,35.7-21.7C102.8,264.8,109.6,262.8,116,260.3z"/>
		<path class="st8" d="M273.1,246.4c-1,3-2,6.1-3,9.1c-13.4,0.5-23.8,6-29.6,18.5c-7.8,16.6,0.7,36.4,18.1,42.4
			c1.8,0.6,3.7,1.2,7,2.3c-12.9,13.5-25,26.5-37.4,39.1c-1.1,1.2-4.4,1.4-6.1,0.7c-23.3-9.4-34.9-35.6-26.3-59.4c1.5-4,1-6.6-2-9.7
			c-15.3-16.3-14.7-37.8,1.2-53.4c3.2-3.1,7-5.6,10.5-8.3c0.3,0.4,0.5,0.7,0.8,1.1c-5.3,7.9-9.6,16.2-9.5,26.2
			c0.1,8.7,2.9,16.3,8.1,23c5.3,7,14.9,7,19.8-0.4c11.2-17.2,27.6-26.3,47-30.9C272.1,246.4,272.6,246.4,273.1,246.4z"/>
		<path class="st9" d="M232.1,619.4c-3.9,4.2-7.1,9.7-11.9,12.5c-7.5,4.4-16.2,6.6-24.1,10.3c-16.7,8-28.3,20.9-35.1,38.1
			c-13.9-0.7-27.8-1.1-41.6,1.9c-13.8,3.1-27.4,6.8-39.7,14.2c-0.4,0.2-0.9,0.2-2.6,0.6c14.9-31.4,38.7-54.5,61.2-78.9
			c17.2,11,35.9,13.7,55.3,13.2C207.6,630.8,220.7,627.8,232.1,619.4z"/>
		<path class="st10" d="M496.1,189.2c-7.6,1.7-15.1,3.7-22.7,4.9c-27.7,4.6-55.7,4.9-83.7,3.9c-22.6-0.8-45.2-3.1-67.7-3.5
			c-70.5-1-138.8,10.3-203.8,38.5c-0.9,0.4-1.9,0.7-2.8,1c-0.2,0.1-0.6-0.2-2-0.7c56.9-33.7,117.1-55.9,181.8-65.9
			c0.6,1.4,0.9,3.4,2,4.2c4.8,3.4,9.5,7.3,14.9,9.5c18.9,7.4,39.1,8.6,59,9.7c18.5,1,37.1,0.7,55.7,0.2c21-0.5,42-2,63.1-2.9
			C491.9,188.3,494,188.9,496.1,189.2z"/>
		<path class="st1" d="M275.1,322.4c-1.9,22.4,13.7,31,32.7,32.8c4.8,0.5,9.6,0.1,14.4,0.2c-17.6,11.6-34.9,23.7-52.8,34.7
			c-16.4,10.1-33.3,9.1-49.6-0.8c-4.9-3-9.6-6.4-15.5-10.4c22.5-2.6,35.6-17,48.7-31.5C260.5,339.2,267.7,330.8,275.1,322.4z"/>
		<path class="st11" d="M288.1,158.2c-18.1,4.2-36.4,7.7-54.4,12.6c-27.2,7.4-53.5,17.2-79,29.2c-1.3,0.6-2.7,1.1-5.1,2.1
			c2.2-6.7,4.1-12.6,6.2-18.5c0.4-1.1,1.9-1.8,3-2.5c35.5-21.1,73.3-36.1,114.3-42.6c1.3-0.2,2.6-0.2,4-0.3
			C280.7,145,284.4,151.6,288.1,158.2z"/>
		<path class="st2" d="M484.2,275.4c0.3-4.5,0.6-8.9,0.9-13.4c1.6-22.7-8.1-39.5-26.7-51.8c-1.2-0.8-2.5-1.7-3.7-2.5
			c-0.1-0.1-0.1-0.3-0.1-0.4c13.5-2.3,27-4.6,40.5-6.9c1.1,0.6,2.1,1.4,3.2,1.9c5.4,2.1,11,3.7,16.2,6.3c14,7.1,17.5,19.3,8.4,32
			c-5.5,7.7-12.3,14.7-19.4,21.1C497.8,267,490.7,270.9,484.2,275.4z"/>
		<path class="st9" d="M158.1,733.1c-20.3-4.2-40.3-8.1-60.1-12.6c-4.5-1-8.9-3.8-12.7-6.6c-4.8-3.6-4.8-6.5,0.5-8.9
			c9.8-4.5,19.8-8.6,30.1-11.6c17-4.9,34.5-3.9,51.9-2c1.2,0.1,3.2,2.8,2.9,3.7C166.8,707.5,162.6,719.7,158.1,733.1z"/>
		<path class="st5" d="M496.1,189.2c-2.1-0.3-4.1-1-6.2-0.9c-21,0.9-42,2.3-63.1,2.9c-18.5,0.5-37.2,0.8-55.7-0.2
			c-19.9-1.1-40.1-2.3-59-9.7c-5.4-2.1-10.1-6.1-14.9-9.5c-1.1-0.8-1.4-2.8-2-4.2c18.2-0.9,36.4-1.9,54.6-2.8c0.8,0,1.6,0.4,2.4,0.5
			c22.2,5.6,44.2,12,66.5,16.7c14.2,3,28.9,4,43.4,4.9c10.2,0.7,20.5-0.2,30.8-0.5c4.7,0,9.4,0,14.1,0c0.1,0.2,0.1,0.5,0.2,0.7
			c-1.9,0.2-3.7,0.5-5.6,0.7c-1.2,0.4-2.4,0.7-3.6,1.1C497.3,189.1,496.7,189.2,496.1,189.2z"/>
		<path class="st10" d="M116,260.3c-6.4,2.6-13.2,4.5-19.2,7.9c-12.2,6.8-24.1,14-35.7,21.7c-13.5,9-25,20.4-32.6,34.9
			c-6,11.5-8.1,23.7-4.4,36.5c0.4,1.2,0,2.7-0.1,4c-11.6-8-19.2-27.4-8.7-44c8.6-13.6,19.8-24.7,32.2-34.6
			c37.4-29.8,80-49.3,125.6-62.7c1.6-0.5,3.2-0.5,4.9-0.8l0.1,0.1c-7.5,4-15.1,7.6-22.4,12C142.3,243.4,129.2,251.9,116,260.3z"/>
		<path class="st12" d="M112.1,453.4c2.1,10.1,3.5,20.3,6.3,30.2c6.6,23.4,19,43.5,36.1,60.7c3.8,3.8,7.1,8.2,10.9,12.5
			c-5,3.3-9.6,6.2-14.5,9.5c-9.7-7.2-17.8-16.1-25-25.9c-15.9-21.5-25-45.7-28.7-72.1C95.9,459,100.9,454.2,112.1,453.4z"/>
		<path class="st8" d="M375.9,228.3c-3.9-0.6-7.8-1.6-11.7-1.8c-18-1.2-36-1.1-53.9,1.5c-3.6,0.5-7.2,0.9-10.8,1.4
			c-5.3-10.5-13.4-18-24.2-22.9c38.3-3.6,76.3,0,115.8,1.7C382.9,213.7,378.6,220.4,375.9,228.3z"/>
		<path class="st6" d="M484.2,275.4c6.5-4.5,13.6-8.4,19.4-13.6c7.1-6.4,13.8-13.4,19.4-21.1c9.1-12.7,5.7-24.9-8.4-32
			c-5.1-2.6-10.8-4.2-16.2-6.3c-1.1-0.5-2.2-1.3-3.2-1.9c6.7-1.4,13.3-2.7,20-4.1c5.8-0.3,11.6-1,17.3-0.8
			c7.7,0.4,15.6,0.8,23.1,2.7c6.8,1.7,8.3,7.1,5,13.4c-1.1,2.2-2.3,4.5-4,6.3c-8.1,8.6-16.2,17.2-24.6,25.4
			c-7.1,6.9-14.6,13.4-21.9,20.1l0.1-0.1c-0.7,0.7-1.4,1.3-2.2,2l0.1-0.1c-0.7,0.5-1.4,1-2.1,1.5c-7.3,4-14.6,7.9-22,11.9l-0.1-0.3
			l-0.3-0.1C483.9,277.3,484,276.3,484.2,275.4z"/>
		<path class="st13" d="M218.1,615.5c-8,1.9-15.9,4.8-23.9,5.5c-14.5,1.2-28.8-1.3-42.3-7c-9.2-3.8-12.1-8.9-9.9-16.7
			c8.3-2.1,16.5-4.7,24.9-6.1c15.6-2.6,29.9,1.5,42.5,11C213.5,605.5,217.8,609.3,218.1,615.5z"/>
		<path class="st13" d="M199.1,777.2c-10,0-20,0.2-29.9,0c-9.7-0.1-12.9-4-10.1-13.3c4.3-14.6,9.3-29.1,14.2-43.6
			c0.4-1.3,2.1-2.9,3.3-3c11.2-1.1,22.4-1.9,33.6-2.9c-1.6,1.5-3.2,3.2-4.9,4.6c-5.8,5-11.2,10.3-13.2,18.1
			c-6.3,4.5-12.8,8.8-18.9,13.5c-2.7,2.1-3.4,5.3-0.9,7.9c2.7,2.9,5.4,1.6,8.2-0.9c3.5-3.1,7.6-5.6,11.5-8.4c1.3,2,3.5,3.9,3.9,6.1
			C197.2,762.5,198,769.9,199.1,777.2z"/>
		<path class="st14" d="M288.1,158.2c-3.7-6.6-7.3-13.2-11-19.8c13.4-1,26.7-2.7,40.1-2.7c18.3-0.1,36.4,2.2,54,7.2
			c2,4.8,3.9,9.6,5.9,14.4c-10.8-0.8-21.6-2.4-32.3-2.2c-17.6,0.4-35.1,1.9-52.7,2.9C290.7,158,289.4,158.1,288.1,158.2z"/>
		<path class="st1" d="M241.1,247.5c-9.4,6.4-18.1,13.6-24.1,23.4c-1.7,2.7-3.3,2.1-4.9-0.2c-5.4-8-6.9-16.5-3.4-25.6
			c8.3-21.9,40.3-36.8,62.3-28.7c3.6,1.3,6.8,3.9,10.2,5.9c-5.8,1.1-11.9,1.5-17.4,3.5C253.3,229.6,244.6,235.9,241.1,247.5z"/>
		<path class="st8" d="M160.9,359.1c0.4,12.2-0.9,13.6-10.7,13.7c-15.3,0.3-27.8-12.8-27.2-28.4c0.5-14.9,14.5-26.7,29.6-25.3
			c3.1,0.3,3.9,1.8,4.3,4.3c0.9,6.4,1.9,12.8,2.7,19.3C160.3,349,160.6,355.4,160.9,359.1z"/>
		<path class="st15" d="M218.1,615.5c-0.2-6.2-4.5-10-8.8-13.2c-12.5-9.4-26.8-13.6-42.5-11c-8.4,1.4-16.6,4-24.9,6.1
			c1.9-10.9,9.4-18,17.5-24.5c3.4-2.8,7.6-4.6,11.5-6.8c1.1,3.8,2.2,7.6,3.3,11.4c-0.3,2.8-1,6.4,2.5,7.1c2.2,0.4,5.8-0.9,7.1-2.7
			c4.4-6.2,8.1-13,12.2-19.7c0.4,0.6,1.4,1.9,2.1,3.4c5.4,11.4,12.6,21.5,21.7,30.3c2.9,2.8,5.7,4.6,9.7,2.8
			C230.8,606.7,227,612.3,218.1,615.5z"/>
		<path class="st16" d="M535.9,373.3c-3.5,18.5-7,37-10.3,55.5c-0.7,4-0.7,8.2-1,12.3c-3,1.7-5.9,3.5-9,5.1c-4,2.1-8.2,4-12.3,6
			c-0.9-17.4,2.4-34.4,6.2-51.2c1.7-7.7,4.2-15.3,6.3-23c1.5,0,3.1,0.4,4.5,0.1C525.5,376.6,530.7,374.9,535.9,373.3z"/>
		<path class="st9" d="M570.8,401.3c-1.9,9.2-3.1,18.6-6,27.5c-3.7,11.1-8.4,22-13.5,32.5c-1.6,3.3-5.8,5.4-8.8,8
			c-1.6-3.3-3.7-6.5-4.6-10c-3.6-14.2-1.3-28.3,0.5-42.5c0.2-1.3,1.2-2.9,2.3-3.5c9.4-4.4,19-8.7,28.5-13
			C569.8,400.7,570.3,401,570.8,401.3z"/>
		<path class="st7" d="M94.9,136.3c5.1-4.9,10.2-9.9,15.4-14.7c13.1-12.1,27.1-22.9,43.4-30.5c2.7-1.3,5.6-1.9,8.4-2.8
			c-0.3,6.5-0.5,12.9-1.1,19.4c-0.1,1.4-1.2,3.1-2.4,3.9c-16.8,11.1-34,21.7-52.7,29.2c-3.7,1.5-7.8,2.1-13,3.4
			C93.8,140.6,94.3,138.5,94.9,136.3z"/>
		<path class="st17" d="M199.1,777.2c-1.1-7.3-1.9-14.7-3.3-21.9c-0.4-2.2-2.6-4-3.9-6.1c4.2-1.7,8.4-3.3,12.6-5c8.7,0,17,2,24,6.9
			c9,6.3,16.2,14.3,17.6,25.9C230.4,777.1,214.8,777.2,199.1,777.2z"/>
		<path class="st18" d="M447.7,216.1c19.7,8.8,29.8,27.5,27.2,48.7c-3.5,27.7-2.5,55.5-0.2,83.2c0.4,4.3,0.8,8.6,0.4,13.7
			c-4.2-4.6-8.5-9.1-12.5-13.8c-0.6-0.7-0.2-2.5,0.3-3.6c7.9-20,7.9-39.8-0.5-59.6c-0.5-1.1-0.7-2.6-0.4-3.7c6-22.7,0.1-43-12.4-62
			C449,218.2,448.6,217.5,447.7,216.1z"/>
		<path class="st13" d="M433.3,742.6c-2.8,2.8-5.7,5.6-8.3,8.5c-2.2,2.5-2.8,5.3,0.2,7.8c3.1,2.5,5.4,1,7.7-1.4
			c2.2-2.2,4.6-4.2,6.9-6.3c11.1,5.1,15.9,14.7,18.2,26c-14.1,0-28.3,0.1-42.4,0.1c-6.1,0-9.5-2.3-10.8-8.3
			c-1.1-5.1-1.5-10.5-1.7-15.8c-0.1-1.2,1.6-3.3,2.9-3.7c8.9-2.7,17.9-5.1,26.8-7.5C433,742.2,433.2,742.4,433.3,742.6z"/>
		<path class="st10" d="M174,531.2c-1.3,1-2.7,2-4,2.9c-7.2,5.1-7,4.9-13.1-1.9c-13.8-15.4-23.6-33-29.3-52.8
			c-0.2-0.6-0.3-1.2-0.6-2.3c11.7,5.8,23.6,8.3,36.2,6.9c-3.9,3.5-8,6.8-11.7,10.4c-1.8,1.7-4.5,4.4-4.1,5.8
			c0.6,2.1,3.4,4.4,5.7,5.1c6.6,1.8,13.5,2.8,19.7,4C173.2,516.4,173.6,523.8,174,531.2z"/>
		<path class="st8" d="M86.7,460.6c0.9,20.8,6.4,40.2,15.1,58.6c1.8,3.7,0.5,5.5-2.6,7c-5.7,2.7-12.5,0.9-17-4.8c1,0,1.8,0.2,2.3,0
			c1.9-0.9,5-1.8,5.3-3.1c0.3-1.9-0.9-5.1-2.5-6.1c-7-4.5-13.2-9.5-16.8-17.2c-3.4-7.3-4.7-14.9-2.3-22.8
			C70.8,463.5,77.4,459.4,86.7,460.6z"/>
		<path class="st9" d="M174,531.2c-0.4-7.4-0.7-14.8-1.1-21.9c-6.2-1.2-13.1-2.2-19.7-4c-2.3-0.6-5.1-3-5.7-5.1
			c-0.4-1.5,2.3-4.1,4.1-5.8c3.8-3.6,7.8-7,11.7-10.4c8.8-2.6,17.7-5.1,26.9-7.8c-0.7,5-1.7,10.4-2.1,15.7c-0.6,9.3-0.9,18.5-1,27.8
			c0,3.3-0.9,5.2-4,6.5C180,527.7,177,529.5,174,531.2z"/>
		<path class="st17" d="M458.1,777.2c-2.4-11.3-7.1-20.9-18.2-26c2.1-1.6,4.2-3.2,6.4-4.7c6.2,0.3,12.4,0.4,18.5,0.8
			c15.8,1.2,29.7,14.9,30.4,29.8C482.8,777.2,470.4,777.2,458.1,777.2z"/>
		<path class="st19" d="M510.1,263.5c7.3-6.7,14.8-13.2,21.9-20.1c8.4-8.3,16.5-16.8,24.6-25.4c1.7-1.8,2.8-4.1,4-6.3
			c3.2-6.3,1.8-11.7-5-13.4c-7.4-1.9-15.3-2.3-23.1-2.7c-5.8-0.3-11.6,0.5-17.3,0.8c18.8-4.4,37.7-8.1,57.1-7.1c0.5,0,1,0.1,1.5,0.1
			c9.5,1,11.8,4.6,6.3,12.1c-7.1,9.6-14.7,19-23.6,26.9c-13.2,11.8-27.7,22.3-41.7,33.2C513.5,262.5,511.7,262.8,510.1,263.5z"/>
		<path class="st3" d="M576.1,363.2c0.9-7.8,1.7-15.5,10-19.5c1.8-0.9,3.2-2.9,4.3-4.7c4-6.8,11.8-7.6,17-1.4
			c4.3,5.1,5.4,11.2,4.7,17.7c-3.1,4-5.9,8.5-9.5,12C592.8,377,582.1,375.1,576.1,363.2z"/>
		<path class="st20" d="M434,387.3c7.2,0.7,14.5,2,21.7,1.7c4.8-0.1,9.7-2,14.2-3.9c3.1-1.3,3.4-4.7,0.7-6.4
			c-16.3-10.5-25.8-26.8-36.6-42c-5-7-10.4-13.7-15.5-20.6c-0.7-1-1-2.4-1.4-3.6c7.3,7.2,15,14.1,21.8,21.7
			c7.2,8.1,13.3,17.1,20.3,25.3c8.7,10.2,18.8,18.2,34,19.4c-10.5,8.5-20.3,16-32.9,17.8C450,398.3,441.5,393.8,434,387.3z"/>
		<path class="st19" d="M363.1,130.2c-14.6-26.7-30.1-52.9-50-76.1c-4.3-5-9.3-9.3-14-13.9c2.9,1.8,6.1,3.2,8.6,5.4
			c23.6,20.5,43.4,44.5,61.9,69.5c4.7,6.4,9.2,12.9,14.7,20.7C376.3,133.7,369.7,132,363.1,130.2z"/>
		<path class="st15" d="M595,323.1c-1.8,0-3.6,0-5.4,0c0.5-1.6,0.6-3.5,1.6-4.8c9.9-13.2,19.8-26.3,29.9-39.3c4-5,9-8.8,15.7-9.8
			c2.1-0.3,4.2-1.1,6.2-1.8c10.9-3.7,14.1-8.1,15.1-19.7c0.5-6.1,1.6-12.2,2.2-18.3c0.9-10.9,8.9-16.6,16.3-22.8
			c2-1.7,4.3-3,6.4-4.5l0.1,0.1c-2,2.7-4,5.3-6,8c-7,3.4-10.7,9.1-11,16.9c-0.4,9.1-0.4,18.3-1.2,27.4c-0.2,2.7-1.6,6.3-3.6,7.7
			c-5.8,4.1-11.9,7.8-18.3,10.8c-7.6,3.5-15.2,6.8-20.7,13.5c-3.9,4.7-8.3,9.1-11.9,14.1C605,307.9,600.1,315.6,595,323.1z"/>
		<path class="st13" d="M595,323.1c5.1-7.5,10-15.2,15.4-22.5c3.6-4.9,8-9.3,11.9-14.1c5.5-6.7,13.1-9.9,20.7-13.5
			c6.4-3,12.6-6.7,18.3-10.8c2.1-1.5,3.4-5,3.6-7.7c0.7-9.1,0.8-18.2,1.2-27.4c0.3-7.8,4-13.4,11-16.9c-6.7,9.6-7,20.7-5.8,31.6
			c1.6,15.5-4.3,26.9-18.3,32.5c-21.2,8.4-33.5,25.5-45.7,43C603.9,322.2,600.6,324.3,595,323.1z"/>
		<path class="st10" d="M493.1,459.3c0.7,3.4,1.1,6.8,2.3,10c2.4,6.6,5.3,13.1,8.3,20.7c-12,3.8-24.8,7.8-37.9,12
			c5.3-13.5,10.3-26,15.2-38.6C485,462,489,460.6,493.1,459.3z"/>
		<path class="st9" d="M263.1,742.6c2.4-6.7,4.3-12.8,6.9-18.4c0.5-1,4-1.5,5.7-1c15.1,5,30.2,10.4,45.3,15.6
			c5.3,1.8,10.7,3.3,15.9,6.1C312.5,744.1,288.2,743.3,263.1,742.6z"/>
		<path class="st12" d="M503.3,452.2c4.1-2,8.2-3.9,12.3-6c3.1-1.6,6-3.4,9-5.1c0.5,5.9,0.4,12,1.6,17.8c1.3,6.2,3.7,12.2,5.9,19.3
			c-4.2,1.8-9.5,4.3-15,6.4c-0.9,0.4-3.1-0.6-3.7-1.5c-2.9-5-6.2-9.9-7.9-15.2C503.9,462.9,504,457.4,503.3,452.2z"/>
		<path class="st21" d="M443.9,231.3c3.3,5.6,4,11.5,2.1,19.4c-17.5-16.4-38.6-17.5-61.8-14.9c1.5-3.8,2.6-6.7,3.8-9.6
			c12.8-3.7,25.7-4.7,38.7-1C432.5,227,438.2,229.3,443.9,231.3z"/>
		<path class="st19" d="M492.9,186.5c-10.3,0.2-20.6,1.1-30.8,0.5c-14.5-1-29.2-2-43.4-4.9c-22.4-4.7-44.4-11-66.5-16.7
			c17.9,2.5,36,4.2,53.8,7.5c26.1,4.9,52,11.5,78.7,12.4C487.4,185.4,490.1,186.1,492.9,186.5z"/>
		<path class="st5" d="M493.1,459.3c-4,1.3-8,2.7-12.1,4c2.8-16.8,5.6-33.7,8.3-50.5c0.2-1.5,0.1-3,0.1-4.5c0-15.2,0-15.2,13.5-23.8
			c-2,8.9-4.6,17.5-5.7,26.2C495.4,426.9,494.4,443.1,493.1,459.3z"/>
		<path class="st22" d="M483.6,683.3c-1.8-5.1-3.7-10.1-5.3-15.3c-8.8-28.3-21.9-54.5-39.2-78.6c-0.7-1-2-1.5-3-2.2l0,0
			c-0.4-0.7-0.7-1.3-1.1-2l0,0c-0.4-0.7-0.8-1.3-1.2-2c-1.2-1.8-2.3-3.6-3.6-5.6c5.1-0.3,8.4,2.3,11.5,5.7
			c16.4,18,26.1,39.6,33,62.5C478.5,658.2,480.7,670.9,483.6,683.3z"/>
		<path class="st23" d="M495.1,777.1c-0.7-14.9-14.6-28.7-30.4-29.8c-6.2-0.5-12.3-0.5-18.5-0.8c20.5-10.8,45.3-3.5,57.3,17.4
			c1.9,3.3,2,7.7,2.9,11.6C502.7,776,498.9,776.6,495.1,777.1z"/>
		<path class="st13" d="M366.1,563.7c-10.6,7-20.5,12.6-29.2,19.5c-9.4,7.5-18.2,16-26.6,24.7c-3.4,3.5-6,4.1-10.8,1.3
			c3.3-4.5,6.1-9.4,9.8-13.5c12.5-13.9,28.3-23,45.2-30.3C357.7,564.1,361.4,564.3,366.1,563.7z"/>
		<path class="st21" d="M241.1,247.5c3.5-11.5,12.2-17.9,22.8-21.8c5.5-2,11.6-2.4,17.4-3.5c3.1,3.5,6.2,7,10.4,11.6
			C272.6,234.8,256.3,239.2,241.1,247.5z"/>
		<path class="st23" d="M246.1,777.1c-1.5-11.6-8.7-19.6-17.6-25.9c-7-4.9-15.3-6.9-24-6.9c10.4-4.8,20.4-2.4,30.1,2.1
			c8.8,4.1,16.1,10.1,20,19.3c1.2,2.8,1.9,7.2,0.5,9.2C253.7,776.7,249.2,776.4,246.1,777.1z"/>
		<path class="st8" d="M576.1,363.2c6,11.9,16.7,13.7,26.4,4.1c3.6-3.6,6.3-8,9.5-12c-0.2,12-4.8,22-14.5,29.1
			c-8,5.8-16.3,3.6-19.6-5.7C576.2,373.9,576.6,368.4,576.1,363.2z"/>
		<path class="st1" d="M443.9,231.3c-5.7-2-11.4-4.4-17.2-6c-12.9-3.7-25.9-2.8-38.7,1c4.1-9.1,12-12.3,21.2-13.3
			C423.5,211.4,439.1,219.7,443.9,231.3z"/>
		<path class="st15" d="M192.1,737.2c2-7.8,7.4-13,13.2-18.1c1.7-1.5,3.3-3.1,4.9-4.6c5.6,0.5,11.1,0.9,17.8,1.5
			c-1.7,5.5-3,10.1-4.6,14.5c-0.3,0.7-1.8,1.5-2.7,1.4C210.6,730.9,201.3,733.8,192.1,737.2z"/>
		<path class="st24" d="M340.1,390.1c-4.9-2.8-9.9-5.6-15-8.5c12.1-15,37.3-13.2,47.2,2.4c-1.1-0.3-2.3-0.4-3.3-0.8
			C357,377.7,348.6,379.7,340.1,390.1z"/>
		<path class="st9" d="M291.1,568.5c-2,0.9-3.8,2.1-5.9,2.7c-13.6,4.1-27.1,8.5-38.9,16.9c-2.3,1.6-4.4,3.4-6.6,5.2
			c-4-9.7-0.2-18.2,10-19.9C263.5,571.2,277.4,570.1,291.1,568.5z"/>
		<path class="st3" d="M543.3,386.3c3.5-15.4,8.2-30.5,16.7-44c3-4.8,7.5-8.8,11.6-12.8c1.3-1.3,3.7-2.3,5.4-2
			c1.9,0.3,4.5,2.1,4.8,3.6c0.3,1.6-1.7,4.9-3.1,5.1c-6.4,1-10.5,4.9-14.1,9.6c-8.9,11.7-13.7,25.3-16.5,39.6
			C546.5,385.6,544.9,385.9,543.3,386.3z"/>
		<path class="st15" d="M251.4,744.3c-6.3-3.5-12.2-6.8-18.3-10.2c1.2-4.1,2.3-8.4,3.9-12.6c0.4-1,2.7-2.2,3.5-1.9
			c5,2.1,9.9,4.5,14.7,7.1c0.9,0.5,1.6,2.6,1.3,3.6C255,735,253.2,739.6,251.4,744.3z"/>
		<path class="st1" d="M413.2,310.2c-12-0.8-22.8,2.3-32.6,9.6c-4.3,3.2-7.8,1.9-9.7-2.8C380.6,300.8,396.2,298.3,413.2,310.2z"/>
		<path class="st13" d="M302.2,556.7c8.8-2.4,17.8-4.1,26.2-7.3c9.8-3.8,19.4-5.5,30.2-2.3c-1.6,1.3-3.1,2.6-4.6,3.8
			c-2.2,1.8-4.3,3.6-6.5,5.2c-0.9,0.6-2.1,1-3.2,1c-12.8,0.1-25.5,0.1-38.3,0.2c-1.3,0-2.5,0-3.8,0
			C302.2,557.1,302.2,556.9,302.2,556.7z"/>
		<path class="st3" d="M483.5,299.8c12.9,9.1,13.6,29.3,0,40.7C483.5,326.3,483.5,312.9,483.5,299.8z"/>
		<path class="st25" d="M340.1,390.1c8.5-10.4,17-12.4,28.9-6.9c1,0.5,2.2,0.6,3.3,0.8l0,0c0.3,0.4,0.6,0.8,0.9,1.2
			c0.6,0.8,1.1,1.5,2,2.7C363.5,393.8,352,395.1,340.1,390.1z"/>
		<path class="st10" d="M145.9,445.7c-6.3,9-12.6,18-18.9,27c-0.5,0-1-0.1-1.6-0.1c-0.8-6.9-1.6-13.8-2.3-20.7
			c-0.1-0.7,0.8-2,1.5-2.2c6.6-1.9,13.3-3.6,19.9-5.4C145.1,444.7,145.5,445.2,145.9,445.7z"/>
		<path class="st19" d="M535.9,373.3c-5.2,1.6-10.4,3.3-15.7,4.8c-1.4,0.4-3,0-4.5-0.1c1.3-10.2,5.6-17.6,17.1-18.6
			c2.6-0.2,5.1-1.3,8.5-2.2C539.4,362.9,537.7,368.1,535.9,373.3z"/>
		<path class="st10" d="M447,545.2c-3,4.7-5.9,9.4-8.9,14.1c-6.3-3.1-12-5.8-18.3-8.9c5.4-3.9,10.4-7.6,15.4-11.2
			C439.1,541.3,443,543.3,447,545.2z"/>
		<path class="st26" d="M377.1,157.2c-2-4.8-3.9-9.6-5.9-14.4c6.8,2.1,14,3.4,20.1,6.7c3.9,2.1,6.4,7.1,9.4,10.7
			c-0.3,0.3-0.6,0.7-0.9,1C392.3,159.9,384.7,158.6,377.1,157.2z"/>
		<path class="st27" d="M178.5,705.3c0-0.1-0.1-0.3-0.1-0.4c4.5-13.6,1.8-11.2,14.5-8.5c10.8,2.3,21.4,5.3,32,8.9
			C209.6,705.3,194.2,705.3,178.5,705.3z"/>
		<path class="st15" d="M359.4,611.1c7.4-11,14.7-22.1,21.6-32.4c0.9,11-3.2,21.6-10.5,31c-1,1.3-3.5,1.4-5.4,1.8
			c-1.1,0.2-2.3-0.1-3.5-0.2C360.7,611.2,359.8,611.1,359.4,611.1z"/>
		<path class="st5" d="M447,545.2c-4-2-7.9-4-11.9-5.9c5.9-4.8,11.9-9.6,17.4-14.2C455.7,531.3,451.7,538.3,447,545.2z"/>
		<path class="st20" d="M278.2,265.8c4.3,0,8,3.7,7.9,7.9c-0.1,4.2-3.4,7.4-7.6,7.5c-4.6,0.1-8-3.1-8.2-7.5
			C270.1,269.7,274,265.8,278.2,265.8z"/>
		<path class="st8" d="M543.3,386.3c1.6-0.3,3.2-0.7,4.8-1c4,2.7,8,5.4,11.9,8c-0.1,0-0.5,0.5-1.1,0.8c-6,2.7-12,5.3-19.2,8.5
			C541,396.6,542.1,391.4,543.3,386.3z"/>
		<path class="st20" d="M425.2,275.4c-0.1,2.2-1.3,4.9-5.4,4.8c-3.5,0-6.5-3.9-6.4-8.1c0.1-3.5,1.5-6.2,5.5-6.2
			C422.6,266,425.3,269.6,425.2,275.4z"/>
		<path class="st13" d="M180,540.1c2.6-1.6,5.2-3.3,8.4-5.3c1.4,5.7,2.6,10.5,4,16.4c-3.3,0-5.8,0-8.4,0
			C182.7,547.5,181.3,543.8,180,540.1z"/>
		<path class="st13" d="M174.2,577.5c-1.1-3.8-2.2-7.6-3.3-11.4c4-1.6,8.1-3.3,13-5.3C182.5,568.4,179.2,573.4,174.2,577.5z"/>
		<path class="st15" d="M426.1,565.3c-7.5-1.1-15-2.3-22.5-3.4c-2.1-0.3-4.2-0.6-6.3-0.9C405.3,555.4,414.3,556.7,426.1,565.3
			L426.1,565.3z"/>
		<path class="st15" d="M473.6,721.1c0.4,3.9,0.8,7.1,1.2,10.7c-6.4,0-12.6,0-19,0C461.6,728.2,467.3,724.8,473.6,721.1z"/>
		<path class="st15" d="M180,540.1c1.3,3.7,2.7,7.4,4,11.1c-5.1,1.6-9.5,0.7-13.7-4.5C173.7,544.4,176.9,542.2,180,540.1z"/>
		<path class="st13" d="M568,384.3c-2.9-1-5.8-2.1-9.1-3.2c1.8-5.1,3.4-9.5,5.3-14.9C565.7,372.9,566.9,378.6,568,384.3L568,384.3z"
			/>
		<path class="st10" d="M373.2,527.4c-2.7,9.8-4.8,11.3-14.2,8.7c5-3.3,9.4-6.2,13.8-9C372.9,527.2,373,527.3,373.2,527.4z"/>
		<path class="st10" d="M497.9,189c1.2-0.4,2.4-0.7,3.6-1.1C500.3,188.3,499.1,188.6,497.9,189z"/>
		<path class="st19" d="M508.1,265.4c0.7-0.7,1.4-1.3,2.2-2C509.5,264,508.8,264.7,508.1,265.4z"/>
		<path class="st19" d="M506.1,266.7c0.7-0.5,1.4-1,2.1-1.5C507.4,265.8,506.7,266.3,506.1,266.7z"/>
		<path class="st10" d="M112.1,235.3c-0.4,0.3-0.8,0.6-1.2,0.9c-0.1-0.2-0.2-0.4-0.3-0.6c0.5-0.1,0.9-0.3,1.4-0.4L112.1,235.3z"/>
		<path class="st19" d="M299.1,40.2c-0.7-0.4-1.4-0.8-2.1-1.2c0.7,0.1,1.4,0.2,2,0.3C299.2,39.6,299.2,39.9,299.1,40.2z"/>
		<path class="st10" d="M178,223.2c0.4-0.3,0.7-0.6,1.1-0.9c0.1,0.2,0.2,0.4,0.3,0.6C179,223.1,178.5,223.2,178,223.2
			C178.1,223.3,178,223.2,178,223.2z"/>
		<path class="st15" d="M686.1,200.3c-0.7,0.3-1.3,0.6-2,1l0.1,0.1C684.8,201,685.4,200.6,686.1,200.3L686.1,200.3z"/>
		<path class="st5" d="M435,585.3c0.4,0.7,0.7,1.3,1.1,2C435.8,586.6,435.4,585.9,435,585.3z"/>
		<path class="st13" d="M432.9,742.1c0.5-0.2,1-0.3,1.5-0.5c-0.3,0.3-0.7,0.6-1,1C433.2,742.4,433,742.2,432.9,742.1z"/>
		<path class="st1" d="M180.8,234c0.7-0.2,1.4-0.4,2.1-0.5c-0.3,0.5-0.6,1-0.9,1.5C181.5,234.6,181.1,234.3,180.8,234z"/>
		<path class="st15" d="M426,565.3C426.5,565.4,426.9,565.5,426,565.3C426.8,565.8,426.4,565.5,426,565.3
			C426.1,565.3,426,565.3,426,565.3z"/>
		<path class="st10" d="M372.8,527c0.2-0.4,0.5-0.8,0.7-1.2c-0.1,0.5-0.2,1-0.3,1.5C373,527.3,372.9,527.2,372.8,527z"/>
		<path class="st5" d="M433.9,583.3c0.4,0.7,0.8,1.3,1.2,2C434.7,584.6,434.3,584,433.9,583.3z"/>
		<path class="st2" d="M161.2,167.4c-0.2,0.1-0.4,0.2-0.6,0.3c0.1-0.2,0.2-0.4,0.3-0.6C160.9,167.1,161.2,167.4,161.2,167.4z"/>
		<path class="st2" d="M484.1,278.7c-0.2,0.1-0.4,0.1-0.6,0.2c0.1-0.2,0.2-0.4,0.2-0.6l0.3,0.1L484.1,278.7z"/>
		<path class="st15" d="M686.1,200.3c0-0.1,0.1-0.2,0.1-0.4C686.2,200.1,686.1,200.2,686.1,200.3L686.1,200.3z"/>
		<path class="st10" d="M112,235.2c0.2-0.2,0.4-0.4,0.6-0.6c-0.1,0.3-0.3,0.5-0.4,0.8C112.1,235.3,112,235.2,112,235.2z"/>
		<path class="st13" d="M568.1,384.2c0.1,0.2,0.3,0.3,0.4,0.5C568.4,384.6,568.2,384.4,568.1,384.2
			C568,384.3,568.1,384.2,568.1,384.2z"/>
		<path class="st24" d="M373.1,385.3c-0.3-0.4-0.6-0.8-0.9-1.2C372.5,384.5,372.8,384.9,373.1,385.3z"/>
		<path class="st8" d="M207.1,227.4c-0.3,0.4-0.5,0.8-0.8,1.2c-0.3-0.4-0.5-0.7-0.8-1.1c0.4-0.2,0.7-0.4,1.1-0.6
			C206.8,227.1,207,227.2,207.1,227.4z"/>
		<path class="st15" d="M683.1,202.3c0.4-0.3,0.7-0.6,1.1-0.9l-0.1-0.1C683.7,201.6,683.4,202,683.1,202.3L683.1,202.3z"/>
		<path class="st8" d="M206.6,226.9c0.4-0.1,0.7-0.3,1.1-0.4c-0.2,0.3-0.4,0.6-0.6,0.9C207,227.2,206.8,227.1,206.6,226.9z"/>
		<path class="st18" d="M411.5,495.9c1.4-12.2,0.7-24-3.3-35.5c-2.7-7.8-8.3-9.1-14.4-3.5c-23.9,22-51.3,37.1-83.5,43
			c-4.8,0.9-9.7,1.1-15.6,1.7c1.2-9.1,1.9-17.4,3.5-25.4c2.7-13.5,7.1-26.6,16.9-36.7c6.5-6.7,14.2-12.6,22.3-17.2
			c12.2-7,25.3-12.5,38-18.8c5.5-2.7,11.2-5.4,16.2-8.9c3.7-2.6,5.7-0.8,8.5,1.1c7.7,5.1,15.3,10.7,23.5,14.6
			c11.4,5.4,23.7,6,35.9,2.1c10.2-3.2,12.9,3.1,11.3,10.5c-4.2,19-10.3,37.2-23,52.5c-9,10.9-20.3,18-34.3,20.6
			C413,496.3,412.4,496,411.5,495.9z"/>
		<path class="st0" d="M365,646.2c11.2-9.1,18.8-20.8,24.7-33.8c1.3-2.9,3.2-4.9,6.5-3.8c3,1,4.2,3.5,3.1,6.7
			c-0.2,0.6-0.1,1.3-0.2,2c-6.9,10.1-13,21-20.8,30.2c-16.3,19.2-37.7,30.2-62.1,35.6c-4.4,1-8.8,1.5-13.3,2.1
			c-3.5,0.5-6.2-0.9-6.6-4.5c-0.3-3.6,2.2-5.1,5.7-5.5c21.6-2.7,41.3-10,58.2-24.1C361.9,649.7,363.4,647.9,365,646.2z"/>
	</g>
</g>
<path class="st28" d="M732.1,192.7c0.3-0.4,0.7-0.9,1.1-1.3c2.5-2.5,6.7-1.9,8.3,1.2c0.5,0.9,0.6,1.8,0.6,2.9c0,2.4-0.9,4.4-2.6,6
	c-1.5,1.4-3,2.7-4.6,4.1c-0.9,0.8-1.9,1.7-2.8,2.5c0,0-0.1,0-0.1-0.1c-2-1.8-4-3.5-5.9-5.3c-0.8-0.7-1.6-1.5-2.3-2.4
	c-1.6-1.9-2-4.2-1.5-6.6c0.8-3.7,5.2-5.1,8.2-2.8C731.1,191.5,731.6,192.2,732.1,192.7z"/>
<path class="st28" d="M767.7,163.1c0.3-0.7,0.5-1.6,0.9-2.4c2.3-4.8,8.5-6.1,12.3-2.5c1.1,1,1.8,2.3,2.3,3.7c1.2,3.4,1,6.6-0.6,9.8
	c-1.4,2.7-2.9,5.4-4.3,8.1c-0.9,1.7-1.8,3.3-2.7,5c-0.1,0-0.1,0-0.2,0c-3.7-1.5-7.4-2.9-11.1-4.4c-1.5-0.6-3.1-1.3-4.5-2.2
	c-3.2-1.9-5-4.9-5.5-8.5c-0.8-5.6,4.7-9.9,10.2-8.1C765.7,161.9,766.7,162.6,767.7,163.1z"/>
<path class="st28" d="M672.1,160.4c0.8-0.2,1.6-0.4,2.5-0.6c5.3-0.8,9.8,3.6,9,8.8c-0.2,1.5-0.9,2.8-1.8,4c-2.1,2.8-4.9,4.5-8.4,5
	c-3,0.4-6.1,0.6-9.1,1c-1.9,0.2-3.8,0.4-5.7,0.6c0-0.1-0.1-0.1-0.1-0.2c-0.8-3.9-1.7-7.8-2.5-11.6c-0.3-1.6-0.6-3.3-0.7-4.9
	c-0.2-3.7,1.3-6.9,4-9.3c4.2-3.8,10.9-1.6,12.4,3.9C671.9,158,671.9,159.2,672.1,160.4z"/>
<path class="st28" d="M724.9,128.3c0.6-0.9,1.3-2.1,2.1-3.1c4.9-6.1,14.2-5.9,18.4,0.4c1.3,1.8,1.8,3.9,2,6.1
	c0.6,5.2-0.8,9.8-4.1,13.8c-2.9,3.4-5.9,6.8-8.9,10.2c-1.8,2.1-3.6,4.2-5.5,6.3c-0.1,0-0.2-0.1-0.2-0.1c-4.8-3.3-9.6-6.6-14.4-10
	c-2-1.4-4-2.9-5.7-4.6c-3.9-3.8-5.5-8.7-5-14c0.7-8.2,10.1-12.6,17.3-8.2C722.3,126,723.6,127.3,724.9,128.3z"/>
</svg>
