<svg width="179" height="118" viewBox="0 0 179 118" fill="none" xmlns="http://www.w3.org/2000/svg">
<g filter="url(#filter0_d)">
<path d="M142 89H39V109H142V89Z" fill="#6850A8"/>
<path d="M93.5242 2.5C117.826 2.5 138.151 21.1017 142.487 47.1813L142.57 47.6822L143.07 47.5912C143.867 47.4459 144.428 47.4167 145.652 47.4167C145.657 47.4167 145.657 47.4167 145.662 47.4167C161.586 47.4167 174.5 61.4287 174.5 78.6348C174.5 96.509 161.308 111.5 145.662 111.5H43.9013C21.7317 111.5 4.5 93.0416 4.5 69.2819C4.5 45.7229 22.2188 26.5159 43.9013 26.5159C46.6315 26.5159 49.0405 26.7358 51.3386 27.2385L51.6887 27.315L51.8737 27.008C61.172 11.574 76.6008 2.5 93.5242 2.5ZM53.2177 29.5667C52.7824 30.0259 52.3081 30.2255 51.8798 30.1095C48.8991 29.4983 46.2593 29.1826 43.731 29.1826C23.3223 29.1826 6.68594 47.2037 6.68594 69.2819C6.68594 91.381 23.0069 108.833 43.731 108.833H145.662C160.048 108.833 172.147 95.0173 172.147 78.6348C172.147 62.9726 160.202 50.0833 145.662 50.0833C145.656 50.0833 145.656 50.0833 145.65 50.0833C144.044 50.0833 143.179 50.1159 141.868 50.2775C141.351 50.3905 140.745 49.8952 140.623 49.2293C136.892 23.6392 117.204 5.16667 93.5242 5.16667C77.0567 5.16667 62.0052 14.2654 53.2177 29.5667Z" fill="#6850A8" stroke="#6850A8"/>
<path d="M93 109C120.062 109 142 85.4949 142 56.5C142 27.5051 120.062 4 93 4C65.938 4 44 27.5051 44 56.5C44 85.4949 65.938 109 93 109Z" fill="#6850A8"/>
<path d="M44 109C64.9868 109 82 91.0914 82 69C82 46.9086 64.9868 29 44 29C23.0132 29 6 46.9086 6 69C6 91.0914 23.0132 109 44 109Z" fill="#6850A8"/>
<path d="M135 109C143.674 109 153.129 109.37 159.438 105.182C167.991 99.5036 172 87.8532 172 78C172 60.8792 155.435 47 135 47C114.565 47 98 60.8792 98 78C98 95.1208 114.565 109 135 109Z" fill="#6850A8"/>
<path d="M74.027 38H110.743C114.624 38 117.77 41.1461 117.77 45.027V81.5676C117.77 85.4485 114.624 88.5946 110.743 88.5946H74.027C70.1461 88.5946 67 85.4485 67 81.5676V45.027C67 41.1461 70.1461 38 74.027 38ZM92.6365 46.3723C91.1407 46.3723 89.7423 46.5787 88.4413 46.9916C87.1403 47.4045 85.9873 48.02 84.9823 48.838C83.9773 49.656 83.1399 50.6765 82.4699 51.8996C81.7999 53.1228 81.348 54.5445 81.1143 56.1649L84.1526 56.7025C84.4331 56.7492 84.698 56.7726 84.9473 56.7726C85.477 56.7726 85.9055 56.6441 86.2327 56.387C86.5599 56.1299 86.817 55.7053 87.0039 55.1132C87.3623 53.9758 87.9933 53.0448 88.897 52.3203C89.8007 51.5958 90.9382 51.2336 92.3093 51.2336C93.8207 51.2336 95.0126 51.6425 95.8851 52.4606C96.7577 53.2786 97.1939 54.49 97.1939 56.0948C97.1939 56.8427 97.0849 57.5283 96.8667 58.1515C96.6486 58.7748 96.263 59.3084 95.7099 59.7525C95.1567 60.1965 94.4127 60.5432 93.4779 60.7925C92.543 61.0418 91.3666 61.1742 89.9488 61.1898V65.3032C91.6627 65.3032 93.0299 65.4357 94.0505 65.7005C95.071 65.9654 95.854 66.3316 96.3993 66.799C96.9446 67.2664 97.303 67.8312 97.4744 68.4934C97.6458 69.1556 97.7315 69.8918 97.7315 70.7021C97.7315 71.3409 97.6107 71.9758 97.3692 72.6068C97.1277 73.2379 96.7616 73.8105 96.2708 74.3246C95.78 74.8388 95.1684 75.2556 94.4361 75.575C93.7038 75.8944 92.8468 76.0541 91.8652 76.0541C90.9927 76.0541 90.2409 75.9256 89.6099 75.6685C88.9788 75.4114 88.4296 75.0764 87.9622 74.6635C87.4947 74.2506 87.0935 73.7793 86.7585 73.2495C86.4236 72.7198 86.1158 72.1823 85.8354 71.6369C85.664 71.3097 85.4186 71.0604 85.0992 70.889C84.7798 70.7176 84.4175 70.6319 84.0124 70.6319C83.5605 70.6319 83.1165 70.7254 82.6802 70.9124L80.1327 71.9641C80.6001 73.4132 81.1611 74.6908 81.8155 75.7971C82.4699 76.9033 83.2645 77.8382 84.1994 78.6016C85.1342 79.3651 86.2327 79.9416 87.4947 80.3311C88.7568 80.7207 90.237 80.9154 91.9353 80.9154C93.4935 80.9154 94.9697 80.6895 96.3643 80.2376C97.7588 79.7858 98.9858 79.1197 100.045 78.2394C101.105 77.359 101.946 76.2723 102.569 74.979C103.193 73.6858 103.504 72.1978 103.504 70.5151C103.504 68.5363 103.006 66.8925 102.008 65.5837C101.011 64.2749 99.4999 63.3011 97.4744 62.6622C98.3158 62.3818 99.0676 62.0312 99.7298 61.6105C100.392 61.1898 100.953 60.6757 101.413 60.068C101.872 59.4603 102.223 58.7475 102.464 57.9295C102.706 57.1115 102.826 56.165 102.826 55.0899C102.826 53.8589 102.589 52.7138 102.114 51.6542C101.638 50.5947 100.957 49.6716 100.069 48.8847C99.1805 48.0979 98.1093 47.4824 96.8551 47.0384C95.6008 46.5943 94.1946 46.3723 92.6365 46.3723Z" fill="white"/>
</g>
<defs>
<filter id="filter0_d" x="0" y="0" width="179" height="118" filterUnits="userSpaceOnUse" color-interpolation-filters="sRGB">
<feFlood flood-opacity="0" result="BackgroundImageFix"/>
<feColorMatrix in="SourceAlpha" type="matrix" values="0 0 0 0 0 0 0 0 0 0 0 0 0 0 0 0 0 0 127 0"/>
<feOffset dy="2"/>
<feGaussianBlur stdDeviation="2"/>
<feColorMatrix type="matrix" values="0 0 0 0 0 0 0 0 0 0 0 0 0 0 0 0 0 0 0.5 0"/>
<feBlend mode="normal" in2="BackgroundImageFix" result="effect1_dropShadow"/>
<feBlend mode="normal" in="SourceGraphic" in2="effect1_dropShadow" result="shape"/>
</filter>
</defs>
</svg>
