<?xml version="1.0" encoding="utf-8"?>
<!-- Generator: Adobe Illustrator 24.1.0, SVG Export Plug-In . SVG Version: 6.00 Build 0)  -->
<svg version="1.1" id="Layer_1" xmlns="http://www.w3.org/2000/svg" xmlns:xlink="http://www.w3.org/1999/xlink" x="0px" y="0px"
	 viewBox="0 0 252.3 252.3" style="enable-background:new 0 0 252.3 252.3;" xml:space="preserve">
<style type="text/css">
	.st0{fill:#806AD3;}
	.st1{fill:#6850A8;}
</style>
<g>
	<g id="Layer_1_1_">
		<path class="st0" d="M209.4,126.3v42c0,11.5-6.1,22-16,27.8l-0.1,0.1L139.8,165l-10.1-5.9l-61.2-35.7
			c-15.9-9.2-25.7-26.3-25.7-44.7V0l140.7,81.5c12.1,7,20.9,18.6,24.3,32.2C208.9,117.8,209.4,122,209.4,126.3z"/>
		<path class="st1" d="M209.4,126.3v42c0,11.5-6.1,22-16,27.8l-0.1,0.1l-1.2,0.7l-95.8,55.4v-56.7c0-10.5,5.6-20.2,14.7-25.5
			l17.6-10.3l1.2-0.7l78.1-45.5C208.9,117.8,209.4,122,209.4,126.3z"/>
	</g>
</g>
</svg>
