<?xml version="1.0" encoding="utf-8"?>
<!-- Generator: Adobe Illustrator 24.1.0, SVG Export Plug-In . SVG Version: 6.00 Build 0)  -->
<svg version="1.1" id="Layer_1" xmlns="http://www.w3.org/2000/svg" xmlns:xlink="http://www.w3.org/1999/xlink" x="0px" y="0px"
	 viewBox="0 0 300 300" style="enable-background:new 0 0 300 300;" xml:space="preserve">
<style type="text/css">
	.st0{fill:#6850A8;}
	.st1{fill:#806AD3;}
</style>
<g>
	<g>
		<path class="st0" d="M165,3.1c5.9,2.3,12.2,2.3,18.2,3.8c51.3,13.4,86.1,44.9,104.7,94.4c2.5,6.6,2,13.3-2.2,19.1
			c-13.9,19-31.4,34.2-50.4,48.1c-1.7-1.8-1-3.7-1-5.3c-0.1-26.5,0-53,0-79.4c0-11.4-4.3-15.7-15.7-15.7c-5.3,0-10.7,0-16,0
			c-9,0.1-13.8,4.9-13.8,14c0,33.1-0.3,66.3,0.2,99.4c0.1,9.7-2.5,16.1-12.3,18.6c-1.4,0.4-2.7,1.1-4.7,2c0-2.3,0-4,0-5.8
			c0-27.3,0-54.6,0-81.9c0-10.5-4.7-15.1-15.3-15.1c-5.3,0-10.7-0.1-16,0c-9.2,0.1-14.3,4.9-14.4,14.2c-0.1,12.5,0,25,0,37.5
			c0,18.5,0,37,0,55.5c0,9.1-5.6,14.5-14.7,14.5c-2.8,0-1.7-2-1.7-3.2c-0.1-9.2-0.1-18.3-0.1-27.5c0-14.8,0-29.6,0-44.5
			c0-10.3-4.5-14.9-14.8-15.2c-5.7-0.2-11.3-0.3-17-0.2c-8.8,0.1-13.9,5.1-13.9,14c-0.1,24.6,0,49.3,0,73.9c0,8.7-2.9,11.9-11.6,13
			c-3.6,0.5-7.3,0.8-10.9,1.1c-8.8,0.6-15.4-2.7-19.8-10.6c-9.4-16.8-15-34.7-17.6-53.7c-0.1-1.1,0.4-2.4-1.1-3c0-10.3,0-20.7,0-31
			c1.9-1.2,1.1-3.3,1.4-5C16.8,64.3,54.7,23.5,118.3,6.5c5.2-1.4,10.8-0.9,15.7-3.5C144.3,3.1,154.7,3.1,165,3.1z"/>
		<path class="st1" d="M139,296.9c-2.9-2-6.3-1.4-9.5-1.8c-23-3.3-43.9-11.5-63-24.6c-0.7-0.4-1.5-0.8-1.5-2.1
			c21.7-3.2,43.2-8,64.3-14.5c48.1-14.8,92.2-36.8,129.7-71.1c12.9-11.7,24.3-24.6,34.4-38.7c0.9-1.3,1.4-3.2,3.6-3.1
			c0,7.3,0,14.7,0,22c-2.4,6.4-2.6,13.2-4,19.8c-10.8,52.8-58.6,99.9-111.7,110.3c-7.1,1.4-14.4,1.5-21.3,3.8
			C153,296.9,146,296.9,139,296.9z"/>
	</g>
</g>
</svg>
