<?xml version="1.0" encoding="utf-8"?>
<!-- Generator: Adobe Illustrator 24.1.0, SVG Export Plug-In . SVG Version: 6.00 Build 0)  -->
<svg version="1.1"
	 id="Layer_1" xmlns:cc="http://creativecommons.org/ns#" xmlns:dc="http://purl.org/dc/elements/1.1/" xmlns:inkscape="http://www.inkscape.org/namespaces/inkscape" xmlns:rdf="http://www.w3.org/1999/02/22-rdf-syntax-ns#" xmlns:sodipodi="http://sodipodi.sourceforge.net/DTD/sodipodi-0.dtd" xmlns:svg="http://www.w3.org/2000/svg"
	 xmlns="http://www.w3.org/2000/svg" xmlns:xlink="http://www.w3.org/1999/xlink" x="0px" y="0px" viewBox="0 0 300 300"
	 style="enable-background:new 0 0 300 300;" xml:space="preserve">
<style type="text/css">
	.st0{fill:#6850A8;}
	.st1{fill:#FFFFFF;}
</style>
<g id="g3021">
</g>
<g id="Layer_1_1_">
</g>
<g id="Layer_1_1_-7" transform="translate(-819.672,-61.929991)">
</g>
<g id="g4507">
	<path id="rect2989" class="st0" d="M248.1,285H51.9C31.5,285,15,268.5,15,248.1V51.9C15,31.5,31.5,15,51.9,15h196.2
		c20.4,0,36.9,16.5,36.9,36.9v196.2C285,268.5,268.5,285,248.1,285z"/>
	<g id="g3294" transform="matrix(1.5421457,0,0,1.5421457,-138.7893,-138.78929)">
		<path id="path3047" class="st1" d="M227.5,204.9c-1.3,0-2.2,0.6-2.5,1.6c-0.2,0.5-0.3-0.1-0.3,3.2v5.6h5.5v-5.6
			c0-3-0.2-2.6-0.3-3.1C229.5,205.6,228.7,204.9,227.5,204.9z M201,206.8c-1.2,0-2.1,0.7-2.4,1.8c-0.2,0.5-0.3,1.5-0.3,5V224
			c0,3.4,0.2,4.4,0.4,5c0.4,1.2,1.3,1.9,2.4,1.9c1.2,0,2.1-0.7,2.5-2c0.2-0.6,0.3-1.7,0.3-5.3v-9.9c0-3.3-0.2-4.4-0.4-4.9
			C203.1,207.6,202.2,206.8,201,206.8L201,206.8z M246.3,192c-1-9.3-9.2-16.8-18.5-17.5c-27.1-1.2-54.2-1.2-81.3,0
			c-9.2,0.6-17.4,8.2-18.5,17.5c-1,14.6-1,29,0,43.7c1,9.2,9.2,16.8,18.5,17.5c27.1,1.2,54.2,1.2,81.3,0c9.2-0.6,17.5-8.2,18.5-17.5
			C247.4,221,247.4,206.6,246.3,192L246.3,192z M162.2,194.8h-7.7v43.1h-8.1v-43.1h-7.6v-8.2h23.4V194.8z M184.4,237.9h-7.7l0.1-2.2
			l-2.4-0.6c-0.6,1.2-1.4,2.1-2.2,2.7c-0.8,0.6-1.7,0.8-2.8,0.8c-1.3,0-2.3-0.3-3.1-0.8s-1.4-1.2-1.8-2.1c-0.4-1-0.7-2-0.8-3.1
			c-0.1-1.2-0.2-3.5-0.2-7V199h7.6v24.5c0,4.4,0.2,5.5,0.3,6.1c0.3,1.2,1.3,1.8,2.5,1.8c1.3,0,2.3-0.7,2.6-1.9
			c0.1-0.5,0.3-1.6,0.3-6.3V199h7.6V237.9L184.4,237.9z M211.5,209.8v20.4c0-0.2-0.2,2.2-0.5,3.7c-0.3,1.3-0.9,2.5-1.9,3.4
			c-0.9,0.9-2.1,1.4-3.4,1.4c-0.9,0-1.8-0.3-2.6-0.8c-0.9-0.6-1.7-1.5-2.4-2.7l-1.7-2.7l-0.6,3.2l-0.5,2.3h-7.2v-51.3h7.6v18.6
			l2.3-3.6c0.7-1.1,1.5-2,2.4-2.5s1.7-0.8,2.7-0.8c1.2,0,2.2,0.3,3,0.7c0.8,0.5,1.4,1.1,1.8,1.9c0.5,0.9,0.7,1.7,0.8,2.6
			C211.8,207.8,211.5,209.9,211.5,209.8L211.5,209.8z M237.8,219.6h-13.1v8.7c0,2.7,0.2,3.5,0.4,4c0.4,1,1.3,1.6,2.4,1.6
			c1.3,0,2.3-0.7,2.7-1.9c0.3-0.8,0.5-2.3,0.5-4.5v-4.2h7.1v1.8c0,2.4-0.2,4.3-0.4,5.6c-0.2,1.2-0.8,2.5-1.7,4
			c-0.8,1.3-1.9,2.4-3.2,3c-1.3,0.7-2.9,1-4.9,1c-2,0-3.6-0.4-5.1-1c-1.4-0.7-2.5-1.6-3.3-2.7c-0.8-1.2-1.4-2.5-1.7-4
			c-0.3-1.5-0.5-3.7-0.5-5.3v-12c0-4.9,0.4-7.5,1.1-9.5c0.7-1.8,1.8-3.2,3.4-4.2c1.6-0.9,3.4-1.5,5.5-1.5c2.5,0,4.6,0.6,6.3,1.7
			c1.6,1.2,2.8,2.7,3.5,4.7c0.7,2.1,1.1,6.5,1.1,10.3V219.6L237.8,219.6z"/>
		<g id="g3289">
			<path id="path3051" class="st1" d="M160.3,141.2l-6.4-20.6h-5.8l8.6,29.3l0.1,0.2v0.2V171h6.8v-20.6v-0.3l0.1-0.2l7.4-29.3h-5.8
				C163.5,128.3,161.4,135.8,160.3,141.2L160.3,141.2z"/>
			<path id="path3053" class="st1" d="M191.5,138c-0.8-1.2-1.9-2.2-3.4-3c-1.5-0.8-3.4-1.2-5.5-1.2c-2.5,0-4.6,0.6-6.2,1.8
				c-1.5,1.2-2.6,2.7-3.2,4.7c-0.6,2.1-0.9,5.1-0.9,9v7.1c0,3.6,0.2,6.3,0.5,8c0.3,1.6,0.9,3,1.6,4.1c0.7,1.1,1.8,1.9,3.2,2.5
				c1.5,0.6,3.3,0.9,5.5,0.9c1.9,0,3.6-0.4,5.1-1.1c1.4-0.6,2.5-1.6,3.4-3c0.9-1.4,1.5-2.9,1.7-4.5c0.3-1.7,0.4-4.5,0.4-8.4v-6.5
				c0-3-0.2-5.1-0.5-6.5C192.9,140.5,192.3,139.2,191.5,138L191.5,138z M185.8,161.1c0,2.8-0.2,3.8-0.4,4.4
				c-0.4,1.2-1.3,1.8-2.4,1.8c-1.2,0-2-0.7-2.4-2c-0.2-0.6-0.4-1.6-0.4-4.7v-15.7c0-3.3,0.2-4.4,0.4-5c0.4-1.2,1.3-1.8,2.4-1.8
				c1.2,0,2,0.7,2.4,1.9c0.2,0.6,0.4,1.6,0.4,4.9L185.8,161.1L185.8,161.1z"/>
			<path id="path3055" class="st1" d="M213.2,133.8v24.4c0,5-0.2,4.9-0.3,5.4c-0.2,0.7-0.7,2.2-2.6,2.2c-1.8,0-2.4-1.5-2.6-2.1
				c-0.2-0.6-0.3-0.4-0.3-5.2v-24.8h-7.9v24.5c0,3.7,0.1,6.2,0.2,7.4c0.1,1.1,0.4,2.1,0.8,3.1c0.4,0.9,0.9,1.6,1.7,2.2
				c0.8,0.6,2,0.8,3.3,0.8c1.2,0,2.2-0.3,3.1-0.9c0.8-0.6,1.6-1.5,2.2-2.7l2.4,1l-0.1,1.9h8v-37.2L213.2,133.8L213.2,133.8z"/>
		</g>
	</g>
</g>
</svg>
